<svg width="215" height="172" viewBox="0 0 215 172" fill="none" xmlns="http://www.w3.org/2000/svg">
<g clip-path="url(#clip0_454_42556)">
<g clip-path="url(#clip1_454_42556)">
<path d="M87.3358 94.5714C86.8382 94.5675 86.3528 94.4168 85.9402 94.138C85.5275 93.8593 85.2059 93.4648 85.0153 93.0039C84.8248 92.543 84.7739 92.036 84.8689 91.5462C84.9638 91.0565 85.2006 90.6056 85.5495 90.2499L115.827 59.8885C116.3 59.4134 116.943 59.1465 117.613 59.1465C118.283 59.1465 118.925 59.4134 119.399 59.8885C119.873 60.3636 120.139 61.0079 120.139 61.6798C120.139 62.3517 119.873 62.9959 119.399 63.471L89.1221 93.8325C88.8887 94.0691 88.6104 94.2565 88.3036 94.3834C87.9968 94.5103 87.6677 94.5742 87.3358 94.5714Z" fill="#DDAA90"/>
<path d="M117.622 139.8C117.291 139.801 116.962 139.736 116.656 139.609C116.349 139.483 116.07 139.296 115.836 139.061L85.559 108.7C85.3177 108.467 85.125 108.188 84.9924 107.879C84.8597 107.571 84.7896 107.239 84.7863 106.903C84.7829 106.567 84.8462 106.234 84.9727 105.923C85.0991 105.611 85.2861 105.329 85.5226 105.091C85.7592 104.853 86.0406 104.665 86.3505 104.537C86.6604 104.409 86.9926 104.345 87.3276 104.347C87.6626 104.35 87.9937 104.419 88.3017 104.551C88.6097 104.683 88.8884 104.876 89.1215 105.117L119.399 135.478C119.749 135.833 119.987 136.283 120.083 136.773C120.178 137.262 120.128 137.77 119.937 138.23C119.746 138.691 119.423 139.085 119.01 139.362C118.596 139.64 118.11 139.789 117.612 139.79L117.622 139.8Z" fill="#DDAA90"/>
<path d="M139.335 15.4779L97.0087 57.9218C93.7295 61.2101 93.7295 66.5414 97.0087 69.8297L139.335 112.274C142.614 115.562 147.93 115.562 151.21 112.274L193.535 69.8297C196.815 66.5414 196.815 61.2101 193.535 57.9218L151.21 15.4779C147.93 12.1896 142.614 12.1896 139.335 15.4779Z" fill="#F5E9E4"/>
<path d="M55.9078 56.6773L21.0323 91.6499C18.3285 94.3612 18.3285 98.757 21.0323 101.468L55.9078 136.441C58.6115 139.152 62.9951 139.152 65.6989 136.441L100.574 101.468C103.278 98.757 103.278 94.3612 100.574 91.6499L65.6989 56.6772C62.9951 53.966 58.6115 53.966 55.9078 56.6773Z" fill="#F5E9E4"/>
<path d="M110.9 108.566L88.9625 130.564C87.2637 132.268 87.2638 135.03 88.9625 136.733L110.9 158.731C112.598 160.435 115.353 160.435 117.051 158.731L138.988 136.733C140.687 135.03 140.687 132.268 138.989 130.564L117.051 108.566C115.353 106.863 112.598 106.863 110.9 108.566Z" fill="#F5E9E4"/>
<path d="M48.9539 93.3671C52.2815 93.3671 54.979 90.662 54.979 87.3251C54.979 83.9883 52.2815 81.2832 48.9539 81.2832C45.6263 81.2832 42.9287 83.9883 42.9287 87.3251C42.9287 90.662 45.6263 93.3671 48.9539 93.3671Z" fill="#DDAA90"/>
<path d="M59.2176 101.524C59.2162 99.7892 58.778 98.0827 57.9435 96.563C57.109 95.0432 55.9052 93.7594 54.444 92.8306C53.723 93.5555 52.8666 94.1306 51.9236 94.5231C50.9806 94.9155 49.9697 95.1176 48.9487 95.1176C47.9278 95.1176 46.9168 94.9155 45.9739 94.5231C45.0309 94.1306 44.1743 93.5555 43.4534 92.8306C41.9921 93.7594 40.7884 95.0432 39.9539 96.563C39.1194 98.0827 38.6811 99.7892 38.6797 101.524V107.698C38.6797 108.79 39.1125 109.838 39.8828 110.61C40.6532 111.383 41.6979 111.817 42.7874 111.817H55.1101C56.1995 111.817 57.2443 111.383 58.0146 110.61C58.7849 109.838 59.2176 108.79 59.2176 107.698V101.514V101.524Z" fill="#DDAA90"/>
<path d="M72.6414 93.3671C75.969 93.3671 78.6665 90.662 78.6665 87.3251C78.6665 83.9883 75.969 81.2832 72.6414 81.2832C69.3138 81.2832 66.6162 83.9883 66.6162 87.3251C66.6162 90.662 69.3138 93.3671 72.6414 93.3671Z" fill="#DDAA90"/>
<path d="M82.915 101.524C82.9136 99.7892 82.4753 98.0827 81.6408 96.563C80.8063 95.0432 79.6025 93.7594 78.1412 92.8306C77.4203 93.5555 76.5638 94.1306 75.6208 94.5231C74.6779 94.9155 73.6669 95.1176 72.646 95.1176C71.625 95.1176 70.6141 94.9155 69.6711 94.5231C68.7282 94.1306 67.8716 93.5555 67.1506 92.8306C65.6893 93.7594 64.4857 95.0432 63.6512 96.563C62.8167 98.0827 62.3784 99.7892 62.377 101.524V107.698C62.377 108.79 62.8098 109.838 63.5801 110.61C64.3504 111.383 65.3952 111.817 66.4846 111.817H78.8175C79.9069 111.817 80.9517 111.383 81.722 110.61C82.4923 109.838 82.925 108.79 82.925 107.698V101.514L82.915 101.524Z" fill="#DDAA90"/>
<path d="M171.566 56.2956H152.986C152.631 56.2929 152.291 56.1502 152.04 55.8984C151.789 55.6465 151.647 55.3057 151.644 54.9496V41.4388C151.644 41.0808 151.503 40.7373 151.251 40.4833C151 40.2292 150.659 40.0852 150.302 40.0825H123.385C123.028 40.0852 122.687 40.2292 122.436 40.4833C122.184 40.7373 122.043 41.0808 122.043 41.4388V83.7322C122.046 84.0883 122.188 84.4292 122.439 84.6811C122.69 84.9329 123.03 85.0756 123.385 85.0783H171.566C171.921 85.0756 172.261 84.9329 172.512 84.6811C172.764 84.4292 172.906 84.0883 172.909 83.7322V57.6415C172.909 57.2845 172.767 56.9422 172.515 56.6898C172.264 56.4373 171.922 56.2956 171.566 56.2956ZM133.609 63.8657H128.744C128.568 63.867 128.393 63.8331 128.229 63.766C128.066 63.6988 127.917 63.5997 127.792 63.4744C127.667 63.3491 127.568 63.2002 127.501 63.0363C127.435 62.8724 127.401 62.6968 127.402 62.5197V57.6415C127.401 57.4644 127.435 57.2888 127.501 57.1249C127.568 56.961 127.667 56.8121 127.792 56.6868C127.917 56.5615 128.066 56.4624 128.229 56.3953C128.393 56.3281 128.568 56.2942 128.744 56.2956H133.609C133.786 56.2942 133.961 56.3281 134.124 56.3953C134.288 56.4624 134.436 56.5615 134.561 56.6868C134.686 56.8121 134.785 56.961 134.852 57.1249C134.919 57.2888 134.952 57.4644 134.951 57.6415V62.5197C134.957 62.6993 134.926 62.8783 134.861 63.0457C134.796 63.2132 134.697 63.3657 134.572 63.4942C134.447 63.6227 134.297 63.7246 134.131 63.7936C133.966 63.8627 133.788 63.8975 133.609 63.896V63.8657ZM133.609 53.1684H128.744C128.388 53.1684 128.047 53.0266 127.795 52.7741C127.543 52.5217 127.402 52.1792 127.402 51.8223V46.9442C127.401 46.7671 127.435 46.5915 127.501 46.4276C127.568 46.2637 127.667 46.1148 127.792 45.9895C127.917 45.8643 128.066 45.7651 128.229 45.698C128.393 45.6308 128.568 45.5969 128.744 45.5983H133.609C133.786 45.5969 133.961 45.6308 134.124 45.698C134.288 45.7651 134.436 45.8643 134.561 45.9895C134.686 46.1148 134.785 46.2637 134.852 46.4276C134.919 46.5915 134.952 46.7671 134.951 46.9442V51.8223C134.951 52.1792 134.81 52.5217 134.558 52.7741C134.306 53.0266 133.965 53.1684 133.609 53.1684ZM144.943 63.8657H140.078C139.901 63.867 139.726 63.8331 139.563 63.766C139.399 63.6988 139.251 63.5997 139.126 63.4744C139.001 63.3491 138.902 63.2002 138.835 63.0363C138.768 62.8724 138.734 62.6968 138.736 62.5197V57.6415C138.734 57.4644 138.768 57.2888 138.835 57.1249C138.902 56.961 139.001 56.8121 139.126 56.6868C139.251 56.5615 139.399 56.4624 139.563 56.3953C139.726 56.3281 139.901 56.2942 140.078 56.2956H144.943C145.119 56.2942 145.294 56.3281 145.458 56.3953C145.621 56.4624 145.77 56.5615 145.895 56.6868C146.02 56.8121 146.118 56.961 146.185 57.1249C146.252 57.2888 146.286 57.4644 146.285 57.6415V62.5197C146.29 62.6993 146.26 62.8783 146.194 63.0457C146.129 63.2132 146.031 63.3657 145.906 63.4942C145.78 63.6227 145.63 63.7246 145.465 63.7936C145.299 63.8627 145.122 63.8975 144.943 63.896V63.8657ZM144.943 53.1684H140.078C139.722 53.1684 139.381 53.0266 139.129 52.7741C138.877 52.5217 138.736 52.1792 138.736 51.8223V46.9442C138.734 46.7671 138.768 46.5915 138.835 46.4276C138.902 46.2637 139.001 46.1148 139.126 45.9895C139.251 45.8643 139.399 45.7651 139.563 45.698C139.726 45.6308 139.901 45.5969 140.078 45.5983H144.943C145.119 45.5969 145.294 45.6308 145.458 45.698C145.621 45.7651 145.77 45.8643 145.895 45.9895C146.02 46.1148 146.118 46.2637 146.185 46.4276C146.252 46.5915 146.286 46.7671 146.285 46.9442V51.8223C146.285 52.1792 146.143 52.5217 145.892 52.7741C145.64 53.0266 145.299 53.1684 144.943 53.1684ZM156.902 69.098C156.546 69.098 156.205 68.9562 155.953 68.7038C155.701 68.4513 155.56 68.109 155.56 67.752V61.4267C155.56 61.0697 155.701 60.7273 155.953 60.4748C156.205 60.2224 156.546 60.0806 156.902 60.0806C157.257 60.0833 157.597 60.2259 157.848 60.4778C158.099 60.7296 158.242 61.0705 158.244 61.4267V67.752C158.242 68.1082 158.099 68.4489 157.848 68.7008C157.597 68.9527 157.257 69.0953 156.902 69.098ZM162.271 69.098C161.916 69.0953 161.576 68.9527 161.325 68.7008C161.074 68.4489 160.932 68.1082 160.929 67.752V61.4267C160.932 61.0705 161.074 60.7296 161.325 60.4778C161.576 60.2259 161.916 60.0833 162.271 60.0806C162.628 60.0806 162.971 60.2221 163.224 60.4742C163.477 60.7263 163.621 61.0688 163.624 61.4267V67.752C163.621 68.1099 163.477 68.4522 163.224 68.7044C162.971 68.9565 162.628 69.098 162.271 69.098ZM167.65 69.098C167.295 69.0953 166.955 68.9527 166.704 68.7008C166.453 68.4489 166.311 68.1082 166.308 67.752V61.4267C166.311 61.0705 166.453 60.7296 166.704 60.4778C166.955 60.2259 167.295 60.0833 167.65 60.0806C168.006 60.0806 168.348 60.2224 168.6 60.4748C168.851 60.7273 168.993 61.0697 168.993 61.4267V67.752C168.993 67.9305 168.957 68.1071 168.889 68.2717C168.82 68.4364 168.719 68.5857 168.592 68.7109C168.466 68.8362 168.315 68.9349 168.15 69.0014C167.985 69.0678 167.808 69.1007 167.63 69.098H167.65Z" fill="#DDAA90"/>
<path d="M121.508 122.595H120.499C120.292 122.595 120.095 122.513 119.949 122.366C119.803 122.22 119.721 122.022 119.721 121.815V119.498C119.721 119.294 119.641 119.098 119.497 118.954C119.353 118.81 119.158 118.729 118.954 118.729H115.927C115.825 118.727 115.724 118.746 115.63 118.784C115.536 118.822 115.45 118.879 115.378 118.95C115.305 119.022 115.248 119.107 115.209 119.201C115.17 119.295 115.15 119.396 115.15 119.498V121.815C115.151 121.918 115.132 122.02 115.093 122.115C115.055 122.21 114.997 122.297 114.925 122.37C114.853 122.442 114.766 122.5 114.671 122.538C114.577 122.577 114.475 122.596 114.372 122.595H104.785C104.645 122.596 104.508 122.635 104.389 122.708C104.27 122.781 104.173 122.885 104.109 123.01L98.9412 132.898C98.8779 133.015 98.8464 133.148 98.8499 133.282C98.8533 133.416 98.8917 133.546 98.961 133.661C99.0303 133.776 99.1283 133.87 99.2452 133.935C99.3621 134 99.4939 134.033 99.6275 134.031H101.474C101.678 134.031 101.873 134.112 102.017 134.256C102.161 134.4 102.241 134.596 102.241 134.8V144.576C102.244 144.782 102.327 144.979 102.472 145.125C102.617 145.27 102.813 145.353 103.019 145.356H123.203C123.409 145.356 123.607 145.274 123.753 145.128C123.898 144.981 123.98 144.783 123.98 144.576V134.8C123.98 134.596 124.061 134.4 124.205 134.256C124.349 134.112 124.544 134.031 124.747 134.031H126.594C126.728 134.033 126.86 134 126.977 133.935C127.093 133.87 127.191 133.776 127.261 133.661C127.33 133.546 127.368 133.416 127.372 133.282C127.375 133.148 127.344 133.015 127.281 132.898L122.123 123.01C122.062 122.896 121.974 122.798 121.867 122.726C121.759 122.654 121.636 122.609 121.508 122.595ZM111.97 140.538H107.156C106.95 140.538 106.753 140.456 106.607 140.31C106.461 140.164 106.379 139.966 106.379 139.759V134.932C106.379 134.725 106.461 134.527 106.607 134.381C106.753 134.234 106.95 134.152 107.156 134.152H111.97C112.176 134.155 112.372 134.238 112.517 134.384C112.662 134.529 112.745 134.726 112.748 134.932V139.8C112.735 139.998 112.648 140.185 112.504 140.322C112.36 140.459 112.169 140.536 111.97 140.538Z" fill="#DDAA90"/>
</g>
</g>
<defs>
<clipPath id="clip0_454_42556">
<rect width="214.667" height="171.734" fill="white"/>
</clipPath>
<clipPath id="clip1_454_42556">
<rect width="177" height="147" fill="white" transform="translate(19 13.0002)"/>
</clipPath>
</defs>
</svg>
