<svg xmlns="http://www.w3.org/2000/svg" viewBox="0 0 399.38 171.87"><defs><style>.cls-1{opacity:0.07;}.cls-2{fill:#212121;}.cls-3,.cls-4{fill:none;stroke:#212121;stroke-linecap:round;stroke-linejoin:round;}.cls-3{stroke-width:9px;}.cls-4{stroke-width:8px;}</style></defs><g id="Layer_2" data-name="Layer 2"><g id="Layer_1-2" data-name="Layer 1"><g class="cls-1"><polygon class="cls-2" points="319.15 44.68 315.26 41.69 310.59 38.1 307.01 42.77 300.44 51.33 305.1 54.92 311.68 46.36 315.57 49.34 306.01 61.79 293.56 52.23 306.7 35.12 302.04 31.53 288.89 48.65 285 45.66 280.33 42.07 276.74 46.74 267.18 59.19 263.29 56.2 276.44 39.09 271.77 35.5 258.62 52.62 254.73 49.63 250.06 46.05 246.48 50.71 236.92 63.16 233.03 60.17 246.17 43.06 241.5 39.47 228.36 56.59 224.77 61.26 229.44 64.84 233.33 67.83 238 71.42 241.59 66.75 251.15 54.3 255.04 57.29 241.89 74.41 246.56 77.99 259.71 60.87 263.6 63.86 268.26 67.45 271.85 62.78 281.41 50.33 285.3 53.32 272.16 70.43 276.82 74.02 289.97 56.9 302.42 66.46 307.09 70.05 310.67 65.38 320.24 52.93 323.82 48.26 319.15 44.68"/><rect class="cls-3" x="168.92" y="17.17" width="218.94" height="137.54" rx="8.13" transform="translate(-8.81 36.94) rotate(-7.47)"/><path class="cls-3" d="M162.44,43.68l90.31,67.91a42.73,42.73,0,0,0,57-7.48L379.51,15.2"/><line class="cls-4" x1="128.34" y1="69.98" x2="4" y2="86.29"/><line class="cls-4" x1="132.56" y1="102.16" x2="42.72" y2="113.95"/><line class="cls-4" x1="136.78" y1="134.34" x2="100.41" y2="139.11"/><line class="cls-3" x1="320.96" y1="89.85" x2="391.75" y2="138.33"/><line class="cls-3" x1="238.26" y1="100.7" x2="182.38" y2="165.81"/></g></g></g></svg>