<svg width="200" height="200" viewBox="0 0 200 200" fill="none" xmlns="http://www.w3.org/2000/svg">
<g opacity="0.5" clip-path="url(#clip0_2184_16231)">
<path d="M200 0H0V200H200V0Z" fill="white"/>
<path opacity="0.5" d="M200 0H0V200H200V0Z" fill="#C5947C"/>
<g style="mix-blend-mode:overlay" opacity="0.5">
<path d="M11.52 0H10.5L11.52 1.01V0Z" fill="#999999"/>
<path d="M11.52 34.1498V1.00977L0 12.4798V22.6798L11.52 34.1498Z" fill="#666666"/>
<path d="M0 12.48L11.52 1.01L10.5 0H0V12.48Z" fill="#4D4D4D"/>
<path d="M11.52 34.1504L0 45.6204V55.8104L11.52 67.2804V34.1504Z" fill="#666666"/>
<path d="M0 22.6797V45.6197L11.52 34.1497L0 22.6797Z" fill="#808080"/>
<path d="M11.52 67.2803L0 78.7503V88.9503L11.52 100.42V67.2803Z" fill="#808080"/>
<path d="M0 55.8096V78.7496L11.52 67.2796L0 55.8096Z" fill="#808080"/>
<path d="M11.52 100.42L0 111.89V122.09L11.52 133.56V100.42Z" fill="#666666"/>
<path d="M0 88.9502V111.89L11.52 100.42L0 88.9502Z" fill="#4D4D4D"/>
<path d="M11.52 133.56L0 145.03V155.23L11.52 166.7V133.56Z" fill="#666666"/>
<path d="M0 122.09V145.03L11.52 133.56L0 122.09Z" fill="#333333"/>
<path d="M0 178.17V188.37L11.52 199.83V166.7L0 178.17Z" fill="#808080"/>
<path d="M0 155.23V178.17L11.52 166.7L0 155.23Z" fill="#808080"/>
<path d="M11.3501 200H11.5201V199.83L11.3501 200Z" fill="#808080"/>
<path d="M0 188.37V200H11.35L11.52 199.83L0 188.37Z" fill="#4D4D4D"/>
<path d="M44.79 0H43.77L44.79 1.01V0Z" fill="#333333"/>
<path d="M12.53 0H11.52V1.01L12.53 0Z" fill="#999999"/>
<path d="M44.7899 1.00977L28.1499 17.5798L44.7899 34.1498V1.00977Z" fill="#4D4D4D"/>
<path d="M28.15 17.5798L11.52 1.00977V34.1498L28.15 17.5798Z" fill="#4D4D4D"/>
<path d="M28.1499 17.58L44.7899 1.01L43.7699 0H28.1499V17.58Z" fill="#4D4D4D"/>
<path d="M28.15 17.58V0H12.53L11.52 1.01L28.15 17.58Z" fill="#999999"/>
<path d="M44.7899 34.1504L28.1499 50.7204L44.7899 67.2804V34.1504Z" fill="#4D4D4D"/>
<path d="M28.15 50.7204L11.52 34.1504V67.2804L28.15 50.7204Z" fill="#808080"/>
<path d="M44.7899 34.1501L28.1499 17.5801V50.7201L44.7899 34.1501Z" fill="#999999"/>
<path d="M28.15 50.7201V17.5801L11.52 34.1501L28.15 50.7201Z" fill="#999999"/>
<path d="M11.52 67.2803V100.42L28.15 83.8503L11.52 67.2803Z" fill="#999999"/>
<path d="M44.7899 67.2803L28.1499 83.8503L44.7899 100.42V67.2803Z" fill="#666666"/>
<path d="M28.15 83.8497V50.7197L11.52 67.2797L28.15 83.8497Z" fill="#808080"/>
<path d="M44.7899 67.2797L28.1499 50.7197V83.8497L44.7899 67.2797Z" fill="#808080"/>
<path d="M28.1499 116.99L44.7899 133.56V100.42L28.1499 116.99Z" fill="#999999"/>
<path d="M11.52 100.42V133.56L28.15 116.99L11.52 100.42Z" fill="#4D4D4D"/>
<path d="M44.7899 100.42L28.1499 83.8496V116.99L44.7899 100.42Z" fill="#808080"/>
<path d="M28.15 83.8496L11.52 100.42L28.15 116.99V83.8496Z" fill="#4D4D4D"/>
<path d="M11.52 166.7L28.15 150.13L11.52 133.56V166.7Z" fill="#4D4D4D"/>
<path d="M28.1499 150.13L44.7899 166.7V133.56L28.1499 150.13Z" fill="#999999"/>
<path d="M11.52 133.56L28.15 150.13V116.99L11.52 133.56Z" fill="#666666"/>
<path d="M28.1499 116.99V150.13L44.7899 133.56L28.1499 116.99Z" fill="#666666"/>
<path d="M11.52 199.83L28.15 183.27L11.52 166.7V199.83Z" fill="#333333"/>
<path d="M28.1499 183.27L44.7899 199.83V166.7L28.1499 183.27Z" fill="#999999"/>
<path d="M11.52 166.7L28.15 183.27V150.13L11.52 166.7Z" fill="#4D4D4D"/>
<path d="M28.1499 150.13V183.27L44.7899 166.7L28.1499 150.13Z" fill="#999999"/>
<path d="M44.6201 200H44.7901V199.83L44.6201 200Z" fill="#999999"/>
<path d="M11.52 200H11.68L11.52 199.83V200Z" fill="#808080"/>
<path d="M28.15 183.27L11.52 199.83L11.68 200H28.15V183.27Z" fill="#808080"/>
<path d="M28.1499 183.27V200H44.6199L44.7899 199.83L28.1499 183.27Z" fill="#4D4D4D"/>
<path d="M45.8 0H44.79V1.01L45.8 0Z" fill="#808080"/>
<path d="M78.06 0H77.04L78.06 1.01V0Z" fill="#333333"/>
<path d="M61.42 17.5798L44.79 1.00977V34.1498L61.42 17.5798Z" fill="#808080"/>
<path d="M78.0599 1.00977L61.4199 17.5798L78.0599 34.1498V1.00977Z" fill="#4D4D4D"/>
<path d="M61.42 17.58V0H45.8L44.79 1.01L61.42 17.58Z" fill="#666666"/>
<path d="M61.4199 17.58L78.0599 1.01L77.0399 0H61.4199V17.58Z" fill="#666666"/>
<path d="M78.0599 34.1504L61.4199 50.7204L78.0599 67.2804V34.1504Z" fill="#666666"/>
<path d="M61.42 50.7204L44.79 34.1504V67.2804L61.42 50.7204Z" fill="#4D4D4D"/>
<path d="M61.42 50.7201V17.5801L44.79 34.1501L61.42 50.7201Z" fill="#666666"/>
<path d="M78.0599 34.1501L61.4199 17.5801V50.7201L78.0599 34.1501Z" fill="#999999"/>
<path d="M78.0599 67.2803L61.4199 83.8503L78.0599 100.42V67.2803Z" fill="#4D4D4D"/>
<path d="M61.42 83.8503L44.79 67.2803V100.42L61.42 83.8503Z" fill="#4D4D4D"/>
<path d="M61.42 83.8497V50.7197L44.79 67.2797L61.42 83.8497Z" fill="#4D4D4D"/>
<path d="M78.0599 67.2797L61.4199 50.7197V83.8497L78.0599 67.2797Z" fill="#666666"/>
<path d="M44.79 133.56L61.42 116.99L44.79 100.42V133.56Z" fill="#808080"/>
<path d="M61.4199 116.99L78.0599 133.56V100.42L61.4199 116.99Z" fill="#4D4D4D"/>
<path d="M78.0599 100.42L61.4199 83.8496V116.99L78.0599 100.42Z" fill="#4D4D4D"/>
<path d="M61.42 116.99V83.8496L44.79 100.42L61.42 116.99Z" fill="#808080"/>
<path d="M61.4199 150.13L78.0599 166.7V133.56L61.4199 150.13Z" fill="#666666"/>
<path d="M44.79 166.7L61.42 150.13L44.79 133.56V166.7Z" fill="#666666"/>
<path d="M61.4199 116.99V150.13L78.0599 133.56L61.4199 116.99Z" fill="#333333"/>
<path d="M44.79 133.56L61.42 150.13V116.99L44.79 133.56Z" fill="#4D4D4D"/>
<path d="M61.4199 183.27L78.0599 199.83V166.7L61.4199 183.27Z" fill="#999999"/>
<path d="M44.79 199.83L61.42 183.27L44.79 166.7V199.83Z" fill="#666666"/>
<path d="M44.79 166.7L61.42 183.27V150.13L44.79 166.7Z" fill="#666666"/>
<path d="M61.4199 150.13V183.27L78.0599 166.7L61.4199 150.13Z" fill="#666666"/>
<path d="M44.79 200H44.95L44.79 199.83V200Z" fill="#4D4D4D"/>
<path d="M77.8899 200H78.0599V199.83L77.8899 200Z" fill="#333333"/>
<path d="M61.4199 183.27V200H77.8899L78.0599 199.83L61.4199 183.27Z" fill="#4D4D4D"/>
<path d="M61.42 183.27L44.79 199.83L44.95 200H61.42V183.27Z" fill="#999999"/>
<path d="M111.33 0H110.31L111.33 1.01V0Z" fill="#808080"/>
<path d="M79.0701 0H78.0601V1.01L79.0701 0Z" fill="#4D4D4D"/>
<path d="M94.6901 17.5798L78.0601 1.00977V34.1498L94.6901 17.5798Z" fill="#666666"/>
<path d="M111.33 1.00977L94.6899 17.5798L111.33 34.1498V1.00977Z" fill="#999999"/>
<path d="M94.6899 17.58L111.33 1.01L110.31 0H94.6899V17.58Z" fill="#808080"/>
<path d="M94.6901 17.58V0H79.0701L78.0601 1.01L94.6901 17.58Z" fill="#999999"/>
<path d="M94.6901 50.7204L78.0601 34.1504V67.2804L94.6901 50.7204Z" fill="#666666"/>
<path d="M111.33 34.1504L94.6899 50.7204L111.33 67.2804V34.1504Z" fill="#4D4D4D"/>
<path d="M94.6901 50.7201V17.5801L78.0601 34.1501L94.6901 50.7201Z" fill="#666666"/>
<path d="M111.33 34.1501L94.6899 17.5801V50.7201L111.33 34.1501Z" fill="#808080"/>
<path d="M94.6901 83.8503L78.0601 67.2803V100.42L94.6901 83.8503Z" fill="#333333"/>
<path d="M111.33 67.2803L94.6899 83.8503L111.33 100.42V67.2803Z" fill="#4D4D4D"/>
<path d="M94.6901 83.8497V50.7197L78.0601 67.2797L94.6901 83.8497Z" fill="#333333"/>
<path d="M111.33 67.2797L94.6899 50.7197V83.8497L111.33 67.2797Z" fill="#808080"/>
<path d="M78.0601 133.56L94.6901 116.99L78.0601 100.42V133.56Z" fill="#666666"/>
<path d="M94.6899 116.99L111.33 133.56V100.42L94.6899 116.99Z" fill="#999999"/>
<path d="M111.33 100.42L94.6899 83.8496V116.99L111.33 100.42Z" fill="#4D4D4D"/>
<path d="M94.6901 116.99V83.8496L78.0601 100.42L94.6901 116.99Z" fill="#808080"/>
<path d="M78.0601 166.7L94.6901 150.13L78.0601 133.56V166.7Z" fill="#333333"/>
<path d="M94.6899 150.13L111.33 166.7V133.56L94.6899 150.13Z" fill="#666666"/>
<path d="M94.6899 116.99V150.13L111.33 133.56L94.6899 116.99Z" fill="#666666"/>
<path d="M78.0601 133.56L94.6901 150.13V116.99L78.0601 133.56Z" fill="#808080"/>
<path d="M94.6899 183.27L111.33 199.83V166.7L94.6899 183.27Z" fill="#808080"/>
<path d="M78.0601 199.83L94.6901 183.27L78.0601 166.7V199.83Z" fill="#808080"/>
<path d="M94.6899 150.13V183.27L111.33 166.7L94.6899 150.13Z" fill="#999999"/>
<path d="M78.0601 166.7L94.6901 183.27V150.13L78.0601 166.7Z" fill="#999999"/>
<path d="M111.16 200H111.33V199.83L111.16 200Z" fill="#666666"/>
<path d="M78.0601 200H78.2201L78.0601 199.83V200Z" fill="#808080"/>
<path d="M94.6899 183.27V200H111.16L111.33 199.83L94.6899 183.27Z" fill="#808080"/>
<path d="M94.6901 183.27L78.0601 199.83L78.2201 200H94.6901V183.27Z" fill="#333333"/>
<path d="M112.34 0H111.33V1.01L112.34 0Z" fill="#808080"/>
<path d="M144.6 0H143.58L144.6 1.01V0Z" fill="#999999"/>
<path d="M144.6 1.00977L127.96 17.5798L144.6 34.1498V1.00977Z" fill="#666666"/>
<path d="M127.96 17.5798L111.33 1.00977V34.1498L127.96 17.5798Z" fill="#4D4D4D"/>
<path d="M127.96 17.58V0H112.34L111.33 1.01L127.96 17.58Z" fill="#4D4D4D"/>
<path d="M127.96 17.58L144.6 1.01L143.58 0H127.96V17.58Z" fill="#999999"/>
<path d="M127.96 50.7204L111.33 34.1504V67.2804L127.96 50.7204Z" fill="#4D4D4D"/>
<path d="M144.6 34.1504L127.96 50.7204L144.6 67.2804V34.1504Z" fill="#4D4D4D"/>
<path d="M127.96 50.7201V17.5801L111.33 34.1501L127.96 50.7201Z" fill="#333333"/>
<path d="M144.6 34.1501L127.96 17.5801V50.7201L144.6 34.1501Z" fill="#666666"/>
<path d="M144.6 67.2803L127.96 83.8503L144.6 100.42V67.2803Z" fill="#333333"/>
<path d="M127.96 83.8503L111.33 67.2803V100.42L127.96 83.8503Z" fill="#808080"/>
<path d="M144.6 67.2797L127.96 50.7197V83.8497L144.6 67.2797Z" fill="#666666"/>
<path d="M127.96 83.8497V50.7197L111.33 67.2797L127.96 83.8497Z" fill="#808080"/>
<path d="M127.96 116.99L144.6 133.56V100.42L127.96 116.99Z" fill="#4D4D4D"/>
<path d="M111.33 133.56L127.96 116.99L111.33 100.42V133.56Z" fill="#999999"/>
<path d="M144.6 100.42L127.96 83.8496V116.99L144.6 100.42Z" fill="#333333"/>
<path d="M127.96 116.99V83.8496L111.33 100.42L127.96 116.99Z" fill="#999999"/>
<path d="M127.96 150.13L144.6 166.7V133.56L127.96 150.13Z" fill="#808080"/>
<path d="M111.33 166.7L127.96 150.13L111.33 133.56V166.7Z" fill="#999999"/>
<path d="M111.33 133.56L127.96 150.13V116.99L111.33 133.56Z" fill="#666666"/>
<path d="M127.96 116.99V150.13L144.6 133.56L127.96 116.99Z" fill="#4D4D4D"/>
<path d="M127.96 183.27L144.6 199.83V166.7L127.96 183.27Z" fill="#808080"/>
<path d="M111.33 199.83L127.96 183.27L111.33 166.7V199.83Z" fill="#4D4D4D"/>
<path d="M127.96 150.13V183.27L144.6 166.7L127.96 150.13Z" fill="#333333"/>
<path d="M111.33 166.7L127.96 183.27V150.13L111.33 166.7Z" fill="#808080"/>
<path d="M111.33 200H111.49L111.33 199.83V200Z" fill="#999999"/>
<path d="M144.43 200H144.6V199.83L144.43 200Z" fill="#808080"/>
<path d="M127.96 183.27V200H144.43L144.6 199.83L127.96 183.27Z" fill="#4D4D4D"/>
<path d="M127.96 183.27L111.33 199.83L111.49 200H127.96V183.27Z" fill="#999999"/>
<path d="M177.87 0H176.85L177.87 1.01V0Z" fill="#4D4D4D"/>
<path d="M145.61 0H144.6V1.01L145.61 0Z" fill="#808080"/>
<path d="M177.87 1.00977L161.23 17.5798L177.87 34.1498V1.00977Z" fill="#666666"/>
<path d="M161.23 17.5798L144.6 1.00977V34.1498L161.23 17.5798Z" fill="#4D4D4D"/>
<path d="M161.23 17.58L177.87 1.01L176.85 0H161.23V17.58Z" fill="#666666"/>
<path d="M161.23 17.58V0H145.61L144.6 1.01L161.23 17.58Z" fill="#4D4D4D"/>
<path d="M161.23 50.7204L144.6 34.1504V67.2804L161.23 50.7204Z" fill="#666666"/>
<path d="M177.87 34.1504L161.23 50.7204L177.87 67.2804V34.1504Z" fill="#333333"/>
<path d="M177.87 34.1501L161.23 17.5801V50.7201L177.87 34.1501Z" fill="#666666"/>
<path d="M161.23 50.7201V17.5801L144.6 34.1501L161.23 50.7201Z" fill="#808080"/>
<path d="M161.23 83.8503L144.6 67.2803V100.42L161.23 83.8503Z" fill="#808080"/>
<path d="M177.87 67.2803L161.23 83.8503L177.87 100.42V67.2803Z" fill="#808080"/>
<path d="M161.23 83.8497V50.7197L144.6 67.2797L161.23 83.8497Z" fill="#666666"/>
<path d="M177.87 67.2797L161.23 50.7197V83.8497L177.87 67.2797Z" fill="#999999"/>
<path d="M161.23 116.99L177.87 133.56V100.42L161.23 116.99Z" fill="#666666"/>
<path d="M144.6 133.56L161.23 116.99L144.6 100.42V133.56Z" fill="#4D4D4D"/>
<path d="M177.87 100.42L161.23 83.8496V116.99L177.87 100.42Z" fill="#333333"/>
<path d="M161.23 116.99V83.8496L144.6 100.42L161.23 116.99Z" fill="#808080"/>
<path d="M161.23 150.13L177.87 166.7V133.56L161.23 150.13Z" fill="#666666"/>
<path d="M144.6 166.7L161.23 150.13L144.6 133.56V166.7Z" fill="#4D4D4D"/>
<path d="M161.23 116.99V150.13L177.87 133.56L161.23 116.99Z" fill="#808080"/>
<path d="M144.6 133.56L161.23 150.13V116.99L144.6 133.56Z" fill="#808080"/>
<path d="M161.23 183.27L177.87 199.83V166.7L161.23 183.27Z" fill="#999999"/>
<path d="M144.6 199.83L161.23 183.27L144.6 166.7V199.83Z" fill="#808080"/>
<path d="M144.6 166.7L161.23 183.27V150.13L144.6 166.7Z" fill="#4D4D4D"/>
<path d="M161.23 150.13V183.27L177.87 166.7L161.23 150.13Z" fill="#808080"/>
<path d="M144.6 200H144.76L144.6 199.83V200Z" fill="#4D4D4D"/>
<path d="M177.7 200H177.87V199.83L177.7 200Z" fill="#333333"/>
<path d="M161.23 183.27V200H177.7L177.87 199.83L161.23 183.27Z" fill="#999999"/>
<path d="M161.23 183.27L144.6 199.83L144.76 200H161.23V183.27Z" fill="#999999"/>
<path d="M178.88 0H177.87V1.01L178.88 0Z" fill="#4D4D4D"/>
<path d="M194.5 17.5798L177.87 1.00977V34.1498L194.5 17.5798Z" fill="#808080"/>
<path d="M200 12.0996L194.5 17.5796L200 23.0496V12.0996Z" fill="#4D4D4D"/>
<path d="M200 0H194.5V17.58L200 12.1V0Z" fill="#333333"/>
<path d="M194.5 17.58V0H178.88L177.87 1.01L194.5 17.58Z" fill="#666666"/>
<path d="M200 45.2402L194.5 50.7202L200 56.1902V45.2402Z" fill="#4D4D4D"/>
<path d="M194.5 50.7204L177.87 34.1504V67.2804L194.5 50.7204Z" fill="#808080"/>
<path d="M200 45.2401V23.0501L194.5 17.5801V50.7201L200 45.2401Z" fill="#333333"/>
<path d="M194.5 50.7201V17.5801L177.87 34.1501L194.5 50.7201Z" fill="#666666"/>
<path d="M194.5 83.8503L177.87 67.2803V100.42L194.5 83.8503Z" fill="#808080"/>
<path d="M200 89.3299V78.3799L194.5 83.8499L200 89.3299Z" fill="#666666"/>
<path d="M200 78.3797V56.1897L194.5 50.7197V83.8497L200 78.3797Z" fill="#4D4D4D"/>
<path d="M194.5 83.8497V50.7197L177.87 67.2797L194.5 83.8497Z" fill="#4D4D4D"/>
<path d="M200 122.47V111.52L194.5 116.99L200 122.47Z" fill="#4D4D4D"/>
<path d="M177.87 133.56L194.5 116.99L177.87 100.42V133.56Z" fill="#666666"/>
<path d="M194.5 116.99L200 111.52V89.3296L194.5 83.8496V116.99Z" fill="#666666"/>
<path d="M194.5 116.99V83.8496L177.87 100.42L194.5 116.99Z" fill="#666666"/>
<path d="M177.87 166.7L194.5 150.13L177.87 133.56V166.7Z" fill="#808080"/>
<path d="M200 155.6V144.65L194.5 150.13L200 155.6Z" fill="#333333"/>
<path d="M194.5 150.13L200 144.65V122.47L194.5 116.99V150.13Z" fill="#666666"/>
<path d="M177.87 133.56L194.5 150.13V116.99L177.87 133.56Z" fill="#999999"/>
<path d="M177.87 199.83L194.5 183.27L177.87 166.7V199.83Z" fill="#333333"/>
<path d="M200 188.74V177.79L194.5 183.27L200 188.74Z" fill="#808080"/>
<path d="M194.5 150.13V183.27L200 177.79V155.6L194.5 150.13Z" fill="#666666"/>
<path d="M177.87 166.7L194.5 183.27V150.13L177.87 166.7Z" fill="#333333"/>
<path d="M177.87 200H178.03L177.87 199.83V200Z" fill="#808080"/>
<path d="M194.5 200H200V188.74L194.5 183.27V200Z" fill="#666666"/>
<path d="M194.5 183.27L177.87 199.83L178.03 200H194.5V183.27Z" fill="#333333"/>
</g>
<path d="M54.6942 71.1544L25.8584 99.9902L32.0385 106.17L60.8743 77.3345L54.6942 71.1544Z" fill="#C5947C"/>
<path d="M66.0201 82.4913L37.1843 111.327L43.3644 117.507L72.2003 88.6714L66.0201 82.4913Z" fill="#C5947C"/>
<path d="M49.549 111.324L32.041 93.8164L25.8609 99.9965L43.3689 117.504L49.549 111.324Z" fill="#C5947C"/>
<path d="M83.5209 99.9982L66.0129 82.4902L59.8328 88.6703L77.3408 106.178L83.5209 99.9982Z" fill="#C5947C"/>
<path d="M77.3531 93.8214L48.5173 122.657L54.6974 128.837L83.5333 100.002L77.3531 93.8214Z" fill="#C5947C"/>
<path d="M99.9962 71.1622L71.1604 99.998L77.3405 106.178L106.176 77.3423L99.9962 71.1622Z" fill="#C5947C"/>
<path d="M111.329 82.4923L82.4934 111.328L88.6735 117.508L117.509 88.6724L111.329 82.4923Z" fill="#C5947C"/>
<path d="M94.8581 111.323L77.3501 93.8154L71.17 99.9955L88.678 117.504L94.8581 111.323Z" fill="#C5947C"/>
<path d="M128.83 100.007L111.322 82.499L105.142 88.6791L122.65 106.187L128.83 100.007Z" fill="#C5947C"/>
<path d="M122.662 93.8224L93.8264 122.658L100.007 128.838L128.842 100.003L122.662 93.8224Z" fill="#C5947C"/>
<path d="M145.305 71.1632L116.469 99.999L122.649 106.179L151.485 77.3433L145.305 71.1632Z" fill="#C5947C"/>
<path d="M156.634 82.492L139.126 100L145.306 106.18L162.814 88.6721L156.634 82.492Z" fill="#C5947C"/>
<path d="M151.484 122.658L122.648 93.8223L116.468 100.002L145.304 128.838L151.484 122.658Z" fill="#C5947C"/>
<path d="M174.139 100.006L156.631 82.498L150.451 88.6782L167.959 106.186L174.139 100.006Z" fill="#C5947C"/>
<path d="M167.971 93.8234L139.135 122.659L145.316 128.839L174.151 100.003L167.971 93.8234Z" fill="#C5947C"/>
</g>
<defs>
<clipPath id="clip0_2184_16231">
<rect width="200" height="200" fill="white"/>
</clipPath>
</defs>
</svg>
