<svg xmlns="http://www.w3.org/2000/svg" viewBox="0 0 684.04 654.66"><defs><style>.cls-1{fill:#ffeee6;}.cls-2{fill:#ddaa90;}</style></defs><g id="Layer_2" data-name="Layer 2"><g id="Layer_1-2" data-name="Layer 1"><path class="cls-1" d="M684,588.18C675.54,499.92,618,426,539.05,394V41.33A41.32,41.32,0,0,0,497.72,0H259.05a41.32,41.32,0,0,0-41.33,41.33v61.8h-.32a3.46,3.46,0,0,0-3.46,3.46V150a3.46,3.46,0,0,0,3.46,3.46h.32v5.86h-.32a3.46,3.46,0,0,0-3.46,3.46V206.1a3.46,3.46,0,0,0,3.46,3.47h.32V335.82q-6.58-.42-13.27-.42c-107,0-194.8,81.81-204.38,186.27a17.38,17.38,0,0,0,17.29,19H198.78a17.83,17.83,0,0,0,16.85-12c.67-1.94,1.37-3.86,2.09-5.78a246.18,246.18,0,0,1,18.49-38.71h0A252,252,0,0,1,340.52,387a204.33,204.33,0,0,0-104.31-49.16V41.33A22.86,22.86,0,0,1,259.05,18.5h54.47l5,13.5a14.48,14.48,0,0,0,13.59,9.47H420A14.47,14.47,0,0,0,433.58,32l5-13.5h59.16a22.86,22.86,0,0,1,22.84,22.83V327.26C487.31,283.73,436.43,262.5,383,262.5a164.87,164.87,0,0,0-122.31,54.11A6.82,6.82,0,0,0,264,327.75a220.6,220.6,0,0,1,87,47.42l5.27,4.68a249.13,249.13,0,0,1,95.08-18.69c21.47,0,48.94,4.29,69.2,9.52v16.71A233.65,233.65,0,0,0,451.36,377c-96.66,0-179.61,58.7-215.15,142.4a232.82,232.82,0,0,0-18.49,91.25v2.71a41.33,41.33,0,0,0,41.33,41.33H497.72a41.33,41.33,0,0,0,41.33-41.33v-2.71H663.51A20.53,20.53,0,0,0,684,588.18Z"/><rect class="cls-2" x="259.79" y="72.46" width="63.82" height="63.82" rx="14.94"/><rect class="cls-2" x="346.47" y="72.46" width="63.82" height="63.82" rx="14.94"/><rect class="cls-2" x="433.16" y="72.46" width="63.82" height="63.82" rx="14.94"/><rect class="cls-2" x="259.79" y="159.14" width="63.82" height="63.82" rx="14.94"/><rect class="cls-2" x="346.47" y="159.14" width="63.82" height="63.82" rx="14.94"/><rect class="cls-2" x="433.16" y="159.14" width="63.82" height="63.82" rx="14.94"/><path class="cls-2" d="M185,455h-3.65a2.39,2.39,0,0,1-2.39-2.39V446.2a2.39,2.39,0,0,1,2.39-2.39H185a2.39,2.39,0,0,1,2.39,2.39v6.42A2.39,2.39,0,0,1,185,455Zm0-15.16h-3.65a2.4,2.4,0,0,1-2.39-2.4V431a2.39,2.39,0,0,1,2.39-2.39H185a2.39,2.39,0,0,1,2.39,2.39v6.42A2.4,2.4,0,0,1,185,439.85Zm0-15.11h-3.65a2.39,2.39,0,0,1-2.39-2.39v-6.42a2.39,2.39,0,0,1,2.39-2.39H185a2.39,2.39,0,0,1,2.39,2.39v6.42A2.39,2.39,0,0,1,185,424.74Zm13.25,15.11h-3.65a2.4,2.4,0,0,1-2.39-2.4V431a2.39,2.39,0,0,1,2.39-2.39h3.65A2.39,2.39,0,0,1,200.6,431v6.42A2.4,2.4,0,0,1,198.21,439.85Zm0-15.11h-3.65a2.39,2.39,0,0,1-2.39-2.39v-6.42a2.39,2.39,0,0,1,2.39-2.39h3.65a2.39,2.39,0,0,1,2.39,2.39v6.42A2.39,2.39,0,0,1,198.21,424.74Z"/><path class="cls-2" d="M181.31,453a.39.39,0,0,1-.39-.39V446.2a.4.4,0,0,1,.39-.39H185a.39.39,0,0,1,.39.39v6.42a.38.38,0,0,1-.39.39Zm13.25-15.16a.39.39,0,0,1-.39-.4V431a.39.39,0,0,1,.39-.39h3.65a.4.4,0,0,1,.39.39v6.42a.4.4,0,0,1-.39.4Zm-13.25,0a.4.4,0,0,1-.39-.4V431a.4.4,0,0,1,.39-.39H185a.39.39,0,0,1,.39.39v6.42a.39.39,0,0,1-.39.4Zm13.25-15.11a.38.38,0,0,1-.39-.39v-6.42a.38.38,0,0,1,.39-.39h3.65a.39.39,0,0,1,.39.39v6.42a.39.39,0,0,1-.39.39Zm-13.25,0a.39.39,0,0,1-.39-.39v-6.42a.39.39,0,0,1,.39-.39H185a.38.38,0,0,1,.39.39v6.42a.38.38,0,0,1-.39.39Z"/><path class="cls-1" d="M28.92,476a.4.4,0,0,1-.4-.39v-28a.4.4,0,0,1,.4-.39h9.72A4.4,4.4,0,0,0,43,442.79V379.25a.39.39,0,0,1,.4-.39H80a4.4,4.4,0,0,0,4.39-4.4v-52a.39.39,0,0,1,.24-.37l46.66-18.63.15,0a.4.4,0,0,1,.39.4V344a4.4,4.4,0,0,0,2.5,4l28.11,13.35a.38.38,0,0,1,.23.35v59.82a4.4,4.4,0,0,0,4.39,4.4h2.54a4.4,4.4,0,0,0,4.39-4.4V408.53a.39.39,0,0,1,.39-.39h31.37a.38.38,0,0,1,.39.39v18.55a4.41,4.41,0,0,0,4.4,4.4h11.8a.38.38,0,0,1,.39.39V475.6a.39.39,0,0,1-.39.39Z"/><path class="cls-2" d="M208.14,427.08V408.53a2.39,2.39,0,0,0-2.39-2.39H174.38a2.39,2.39,0,0,0-2.39,2.39v12.93a2.39,2.39,0,0,1-2.39,2.39h-2.54a2.39,2.39,0,0,1-2.39-2.39V361.63a2.41,2.41,0,0,0-1.37-2.16l-28.11-13.34a2.4,2.4,0,0,1-1.36-2.16V303.83a2.4,2.4,0,0,0-3.28-2.23l-4.24,1.7a2.38,2.38,0,0,0-1.5,2.22V475.6A2.39,2.39,0,0,0,127.2,478h95.14a2.39,2.39,0,0,0,2.39-2.39V431.87a2.39,2.39,0,0,0-2.39-2.39h-11.8A2.4,2.4,0,0,1,208.14,427.08ZM185,455h-3.65a2.39,2.39,0,0,1-2.39-2.39V446.2a2.39,2.39,0,0,1,2.39-2.39H185a2.39,2.39,0,0,1,2.39,2.39v6.42A2.39,2.39,0,0,1,185,455Zm0-15.16h-3.65a2.4,2.4,0,0,1-2.39-2.4V431a2.39,2.39,0,0,1,2.39-2.39H185a2.39,2.39,0,0,1,2.39,2.39v6.42A2.4,2.4,0,0,1,185,439.85Zm0-15.11h-3.65a2.39,2.39,0,0,1-2.39-2.39v-6.42a2.39,2.39,0,0,1,2.39-2.39H185a2.39,2.39,0,0,1,2.39,2.39v6.42A2.39,2.39,0,0,1,185,424.74Zm13.25,15.11h-3.65a2.4,2.4,0,0,1-2.39-2.4V431a2.39,2.39,0,0,1,2.39-2.39h3.65A2.39,2.39,0,0,1,200.6,431v6.42A2.4,2.4,0,0,1,198.21,439.85Zm0-15.11h-3.65a2.39,2.39,0,0,1-2.39-2.39v-6.42a2.39,2.39,0,0,1,2.39-2.39h3.65a2.39,2.39,0,0,1,2.39,2.39v6.42A2.39,2.39,0,0,1,198.21,424.74Z"/><path class="cls-2" d="M114,478h1.39a2.39,2.39,0,0,0,2.39-2.39V310.23a2.39,2.39,0,0,0-3.28-2.22l-1.39.55a2.4,2.4,0,0,0-1.5,2.22V475.6A2.39,2.39,0,0,0,114,478Z"/><path class="cls-2" d="M100.82,478h1.39a2.39,2.39,0,0,0,2.39-2.39V315.5a2.39,2.39,0,0,0-3.28-2.22l-1.39.55a2.38,2.38,0,0,0-1.5,2.22V475.6A2.39,2.39,0,0,0,100.82,478Z"/><path class="cls-2" d="M80,376.86H43.43a2.4,2.4,0,0,0-2.4,2.39v13.11a2.4,2.4,0,0,0,2.4,2.39H80a2.39,2.39,0,0,1,2.39,2.39v.94a2.4,2.4,0,0,1-2.39,2.4H43.43a2.4,2.4,0,0,0-2.4,2.39v.06a2.4,2.4,0,0,0,2.4,2.39H80a2.39,2.39,0,0,1,2.39,2.39v.94A2.39,2.39,0,0,1,80,411H43.43a2.4,2.4,0,0,0-2.4,2.39v.06a2.4,2.4,0,0,0,2.4,2.39H80a2.4,2.4,0,0,1,2.39,2.4v.94A2.39,2.39,0,0,1,80,421.61H43.43A2.4,2.4,0,0,0,41,424v.06a2.4,2.4,0,0,0,2.4,2.39H80a2.39,2.39,0,0,1,2.39,2.39v.94a2.39,2.39,0,0,1-2.39,2.4H43.43a2.4,2.4,0,0,0-2.4,2.39v8.22a2.39,2.39,0,0,1-2.39,2.39H28.91a2.39,2.39,0,0,0-2.39,2.39v28A2.39,2.39,0,0,0,28.91,478H89a2.39,2.39,0,0,0,2.4-2.39V320.77a2.4,2.4,0,0,0-3.28-2.23l-4.24,1.7a2.38,2.38,0,0,0-1.5,2.22v52A2.4,2.4,0,0,1,80,376.86Z"/><path class="cls-2" d="M652.81,455.52l-7.23-16.21a4.63,4.63,0,0,0-4.22-2.74h-64V422.66a2.72,2.72,0,0,0-2.72-2.72h-7.23a2.72,2.72,0,0,0-2.72,2.72v13.91H550.34a4.6,4.6,0,0,0-4.21,2.74l-7.24,16.21a4.62,4.62,0,0,0,4.22,6.5,4.62,4.62,0,0,1,4.62,4.62v7.63a4.61,4.61,0,0,1-4.62,4.61H505a4.62,4.62,0,0,0-4.21,2.74l-7.24,16.21a4.62,4.62,0,0,0,4.22,6.5H498a4.62,4.62,0,0,1,4.62,4.62V553a4.62,4.62,0,0,0,4.62,4.62H639.36A4.62,4.62,0,0,0,644,553V466.64a4.61,4.61,0,0,1,4.61-4.62A4.62,4.62,0,0,0,652.81,455.52ZM541.12,527.67a5.06,5.06,0,0,1-5.06,5.06H523.61a5.06,5.06,0,0,1-5.06-5.06V509.56a5.06,5.06,0,0,1,5.06-5.06h12.45a5.06,5.06,0,0,1,5.06,5.06Zm29.94,0a5.06,5.06,0,0,1-5.06,5.06H553.55a5.06,5.06,0,0,1-5.06-5.06V509.56a5.06,5.06,0,0,1,5.06-5.06H566a5.06,5.06,0,0,1,5.06,5.06Zm27.4-49.5a9.66,9.66,0,1,1,9.66-9.66A9.65,9.65,0,0,1,598.46,478.17Zm32.24,49.5a5.07,5.07,0,0,1-5.06,5.06H613.18a5.07,5.07,0,0,1-5.06-5.06V509.56a5.07,5.07,0,0,1,5.06-5.06h12.46a5.07,5.07,0,0,1,5.06,5.06Z"/><path class="cls-2" d="M381.13,523.21l-4.65-16.47a3.9,3.9,0,0,0-3.75-2.84H327.28v-3.26a3,3,0,0,0-3-3H278a3,3,0,0,0-3,3v3.26h-11.1a3.91,3.91,0,0,0-3.76,2.84l-4.65,16.47a3.9,3.9,0,0,0,3.75,5h1.68a3.9,3.9,0,0,1,3.9,3.9V585a3.9,3.9,0,0,0,3.9,3.9h99.2a3.9,3.9,0,0,0,3.9-3.9v-52.9a3.91,3.91,0,0,1,3.9-3.9h1.68A3.89,3.89,0,0,0,381.13,523.21Zm-80,34c0,2.21-2.26,4-5,4H283.71c-2.78,0-5-1.79-5-4V542.93c0-2.21,2.25-4,5-4H296.1c2.77,0,5,1.79,5,4Zm32,0c0,2.21-2.25,4-5,4H315.73c-2.78,0-5-1.79-5-4V542.93c0-2.21,2.25-4,5-4h12.38c2.78,0,5,1.79,5,4Z"/><path class="cls-2" d="M453.33,437.73,443,422.53a2.81,2.81,0,0,1-.5-1.61V408a2.88,2.88,0,0,0-2.87-2.88h-4.75A2.87,2.87,0,0,0,432,408v3.45a2.88,2.88,0,0,1-2.88,2.88H407.69a2.86,2.86,0,0,0-2.38,1.26l-15,22.16a2.87,2.87,0,0,0,2.38,4.49h0a2.87,2.87,0,0,1,2.87,2.87v31.36a2.87,2.87,0,0,0,2.87,2.87H445.2a2.87,2.87,0,0,0,2.88-2.87V445.09a2.86,2.86,0,0,1,2.87-2.87h0A2.88,2.88,0,0,0,453.33,437.73ZM421.81,461.9a9.41,9.41,0,1,1,9.41-9.41A9.41,9.41,0,0,1,421.81,461.9Z"/><path class="cls-2" d="M332.66,278c0-10.31-5.83-22.08-8.9-27.57a2.11,2.11,0,0,0-3.68,0c-3.07,5.49-8.89,17.26-8.89,27.57,0,11.71,3.37,17.8,7.95,19.48v9.29a2.78,2.78,0,0,0,5.56,0v-9.29C329.28,295.79,332.66,289.7,332.66,278Z"/><path class="cls-2" d="M362,275.33c0-10.31-5.83-22.09-8.9-27.57a2.1,2.1,0,0,0-3.67,0c-3.07,5.48-8.9,17.26-8.9,27.57,0,11.71,3.37,17.8,8,19.48v9.29a2.79,2.79,0,0,0,5.57,0v-9.29C358.62,293.13,362,287,362,275.33Z"/><path class="cls-2" d="M474.08,543c0-14.13-8-30.28-12.19-37.79a2.9,2.9,0,0,0-5.05,0c-4.2,7.51-12.19,23.66-12.19,37.79,0,16.06,4.62,24.41,10.9,26.7v12.74a3.82,3.82,0,1,0,7.63,0V569.68C469.46,567.39,474.08,559,474.08,543Z"/><path class="cls-2" d="M436.53,543c0-14.13-8-30.28-12.2-37.79a2.89,2.89,0,0,0-5,0c-4.21,7.51-12.2,23.66-12.2,37.79,0,16.06,4.63,24.41,10.9,26.7v12.74a3.82,3.82,0,1,0,7.63,0V569.68C431.9,567.39,436.53,559,436.53,543Z"/><path class="cls-2" d="M399.93,334.55l-7-11.2a.84.84,0,0,1,.72-1.29h3.22a.85.85,0,0,0,.67-1.36l-5.6-7.33a.84.84,0,0,1,.67-1.35h1.59a.85.85,0,0,0,.69-1.33l-4.6-6.65a.84.84,0,0,1,.69-1.32h1.94a.85.85,0,0,0,.75-1.24L382,279.08a.84.84,0,0,0-1.5,0l-11.6,22.4a.85.85,0,0,0,.75,1.24h1.94a.84.84,0,0,1,.69,1.32l-4.61,6.65a.85.85,0,0,0,.7,1.33H370a.84.84,0,0,1,.67,1.35l-5.6,7.33a.85.85,0,0,0,.67,1.36H369a.85.85,0,0,1,.72,1.29l-7,11.2a.85.85,0,0,0,.71,1.3L378,334.14v10.12a3.33,3.33,0,0,0,6.65,0V334.14l14.61,1.71A.85.85,0,0,0,399.93,334.55Z"/><path class="cls-2" d="M538.39,402.68l-7.48-11.93a.9.9,0,0,1,.76-1.37h3.43a.9.9,0,0,0,.72-1.45l-6-7.8a.89.89,0,0,1,.71-1.44h1.69a.9.9,0,0,0,.74-1.41l-4.9-7.07a.9.9,0,0,1,.73-1.42h2.07a.89.89,0,0,0,.79-1.31l-12.34-23.84a.9.9,0,0,0-1.6,0L505.4,367.48a.9.9,0,0,0,.8,1.31h2.06a.9.9,0,0,1,.74,1.42l-4.91,7.07a.9.9,0,0,0,.74,1.41h1.69a.9.9,0,0,1,.72,1.44l-6,7.8a.9.9,0,0,0,.71,1.45h3.43a.89.89,0,0,1,.76,1.37l-7.48,11.93a.89.89,0,0,0,.76,1.37L515,402.23V413a3.54,3.54,0,0,0,7.08,0V402.23l15.54,1.82A.89.89,0,0,0,538.39,402.68Z"/><path class="cls-2" d="M492,421l-7.48-11.92a.9.9,0,0,1,.76-1.38h3.43a.9.9,0,0,0,.71-1.45l-6-7.79a.9.9,0,0,1,.72-1.45h1.69a.9.9,0,0,0,.74-1.41l-4.91-7.07a.9.9,0,0,1,.74-1.41h2.06a.9.9,0,0,0,.8-1.32L473,362a.9.9,0,0,0-1.6,0L459,385.81a.9.9,0,0,0,.8,1.32h2.06a.9.9,0,0,1,.74,1.41l-4.91,7.07a.9.9,0,0,0,.74,1.41h1.69a.9.9,0,0,1,.72,1.45l-6,7.79a.9.9,0,0,0,.71,1.45h3.43a.9.9,0,0,1,.76,1.38L452.34,421a.9.9,0,0,0,.76,1.38l15.54-1.83v10.78a3.55,3.55,0,0,0,7.09,0V420.56l15.54,1.83A.9.9,0,0,0,492,421Z"/><path class="cls-1" d="M282.17,106.13a3,3,0,0,1-3-3V92.35a3,3,0,1,1,6,0v10.78A3,3,0,0,1,282.17,106.13Z"/><path class="cls-1" d="M301.23,106.13a3,3,0,0,1-3-3V92.35a3,3,0,0,1,6,0v10.78A3,3,0,0,1,301.23,106.13Z"/><path class="cls-1" d="M291.69,122.89c-5.84,0-10.64-2.52-11.94-6.28a2.5,2.5,0,0,1,4.72-1.64c.41,1.18,3,2.92,7.22,2.92,4.08,0,6.82-1.71,7.23-2.94a2.5,2.5,0,0,1,4.75,1.58C302.42,120.27,297.5,122.89,291.69,122.89Z"/><path class="cls-1" d="M455.54,192.81a3,3,0,0,1-3-3V179a3,3,0,0,1,6,0v10.78A3,3,0,0,1,455.54,192.81Z"/><path class="cls-1" d="M474.6,192.81a3,3,0,0,1-3-3V179a3,3,0,1,1,6,0v10.78A3,3,0,0,1,474.6,192.81Z"/><path class="cls-1" d="M465.06,214.83c-7.28,0-12.49-4.42-13.94-11.83a2.51,2.51,0,0,1,.52-2.06,2.47,2.47,0,0,1,1.92-.91l23-.11h0a2.5,2.5,0,0,1,2.46,3C477.64,210.25,472.29,214.83,465.06,214.83ZM457,205a8.3,8.3,0,0,0,8.07,4.82c4.63,0,6.94-2.43,8.1-4.89Z"/><path class="cls-1" d="M174.61,190.35a15.53,15.53,0,0,0-24.37-10.87,19.85,19.85,0,0,0-39.46-1.23h-.19a8.62,8.62,0,0,0-8.62,8.62,8.72,8.72,0,0,0,.48,2.81,9.1,9.1,0,0,0,1.36,18.09h67.1a9.1,9.1,0,0,0,3.7-17.41Z"/><path class="cls-1" d="M582.16,285.37a15.53,15.53,0,0,1,24.37-10.87A19.85,19.85,0,0,1,646,273.27h.19a8.62,8.62,0,0,1,8.62,8.62,8.72,8.72,0,0,1-.48,2.81A9.1,9.1,0,0,1,653,302.78h-67.1a9.1,9.1,0,0,1-3.7-17.41Z"/><path class="cls-1" d="M423.93,198.34a17.37,17.37,0,0,0-29.54-17.63c-.21,0-.42,0-.63,0a14.16,14.16,0,0,0-14.06,12.58A11.11,11.11,0,0,0,362,200.08h-2.65a7.61,7.61,0,1,0,0,15.22h59.14a9.35,9.35,0,0,0,5.45-17Z"/><path class="cls-2" d="M269.93,367.42h-3.65a3.52,3.52,0,0,1-3.3-3.8l1.83-55.56a3.47,3.47,0,0,1,3.29-3.53h0a3.48,3.48,0,0,1,3.3,3.53l1.82,55.56A3.5,3.5,0,0,1,269.93,367.42Z"/><path class="cls-2" d="M267,297a3.68,3.68,0,0,1-1.36,2.44,4,4,0,0,1-5,0L255,295a7.15,7.15,0,0,1-1.93-2.27l-10.5-19.27a2.88,2.88,0,0,1-.33-1.68,2.84,2.84,0,0,1,1.06-1.89,2.78,2.78,0,0,1,2.08-.59,2.83,2.83,0,0,1,1.89,1.05l19,23.9A3.58,3.58,0,0,1,267,297Z"/><path class="cls-2" d="M269.37,317.17a7.08,7.08,0,0,1-1,2.81L256.93,338.7a2.82,2.82,0,0,1-5.22-1.79,2.92,2.92,0,0,1,.18-.72l11.22-28.36a3.65,3.65,0,0,1,4.72-2.05,4,4,0,0,1,2.52,4.21Z"/><path class="cls-2" d="M309,296.83a2.84,2.84,0,0,1-2.39,2.48l-30.17,4.46a3.65,3.65,0,0,1-4.14-3.07,4.1,4.1,0,0,1,0-1.05,4,4,0,0,1,2.47-3.26l6.63-2.71a7.08,7.08,0,0,1,2.94-.54l21.93.54a2.83,2.83,0,0,1,2.73,2.41A3.06,3.06,0,0,1,309,296.83Z"/><circle class="cls-2" cx="268.1" cy="302.44" r="5.68"/><path class="cls-2" d="M221.88,295.77l-15.53-18.09a8.06,8.06,0,0,0-2.58-2l-7-3.37a4.37,4.37,0,0,0-3.61-.07,6,6,0,0,0-2.41-5.8,3.9,3.9,0,0,0,1.53-2.5l5.48-32.69a3.1,3.1,0,0,0-.53-2.29,3.08,3.08,0,0,0-4.29-.71,3,3,0,0,0-1.11,1.48l-7.9,22.49a7.66,7.66,0,0,0-.42,3.22l.58,7.76a4.36,4.36,0,0,0,.93,2.36,6.16,6.16,0,0,0-4.11,5.5,3.86,3.86,0,0,0-1.83.21l-31,11.6a3.24,3.24,0,0,0-.71.38,3.07,3.07,0,0,0,2.35,5.52l23.43-4.41a7.84,7.84,0,0,0,3-1.24l6.5-4.44a4.47,4.47,0,0,0,.86-.82l-2,60a3.82,3.82,0,0,0,3.58,4.13h4a3.81,3.81,0,0,0,3.58-4.13l-2-60.37a4.55,4.55,0,0,0-.15-1l.13-.1a4,4,0,0,0,1.41,2.64l25.57,21.08a3.08,3.08,0,0,0,3.74.13,2.75,2.75,0,0,0,.58-.55A3.06,3.06,0,0,0,221.88,295.77Z"/><path class="cls-2" d="M444.65,621.31H312.12a3.5,3.5,0,0,1,0-7H444.65a3.5,3.5,0,1,1,0,7Z"/><path class="cls-2" d="M520.62,294l-7.77-16.83a3.15,3.15,0,0,0-2-1.71l-29.17-7.7a3.11,3.11,0,0,0-2.33.3l-22.72,12.74-25.5-3.75a3.12,3.12,0,0,0-3.47,2.3l-3.76,14.23a3.13,3.13,0,0,0,2.22,3.82l3.29.87a3.19,3.19,0,0,1,2.33,3.16,12.78,12.78,0,0,0,24,6.32,3.18,3.18,0,0,1,3.58-1.6l40,10.56a3.2,3.2,0,0,1,2.33,3.16,12.78,12.78,0,0,0,19,11.29Z"/><path class="cls-1" d="M500,276.27l7.88,2.08a2,2,0,0,1,1.37,1.21l7.71,18.93a2,2,0,0,1-2.42,2.75L494.76,296a2,2,0,0,1-1.45-2.5l4.17-15.79A2,2,0,0,1,500,276.27Z"/><path class="cls-1" d="M483.93,293.17l-20.23-5.35a2,2,0,0,1-.63-3.66L480.92,272a2.08,2.08,0,0,1,1.68-.29l6.55,1.73a2,2,0,0,1,1.45,2.5l-4.17,15.8A2,2,0,0,1,483.93,293.17Z"/><circle class="cls-1" cx="434.22" cy="284.95" r="3.71"/><rect class="cls-1" x="449.18" y="32.8" width="3.4" height="6.09" rx="0.92"/><path class="cls-1" d="M455.57,30.5a.92.92,0,0,0-.92.92V38a.92.92,0,0,0,.92.92h1.55A.92.92,0,0,0,458,38V31.42a.92.92,0,0,0-.92-.92Z"/><path class="cls-1" d="M466.5,25.9a.92.92,0,0,0-.92.92V30.5h0V38a.92.92,0,0,0,.92.92h1.56A.92.92,0,0,0,469,38V30.5h0V26.82a.92.92,0,0,0-.92-.92Z"/><path class="cls-1" d="M461,28.2a.92.92,0,0,0-.92.92V38a.92.92,0,0,0,.92.92h1.56a.92.92,0,0,0,.92-.92V29.12a.92.92,0,0,0-.92-.92Z"/><path class="cls-1" d="M500.32,30.68h-1.27V28.37a2,2,0,0,0-2-2H480.83a2,2,0,0,0-2,2v8.05a2,2,0,0,0,2,2H497a2,2,0,0,0,2-2v-2h1.27a.65.65,0,0,0,.65-.64V31.32A.64.64,0,0,0,500.32,30.68Zm-3.07,5.74a.21.21,0,0,1-.21.21h-2.81V28.16H497a.21.21,0,0,1,.21.21Z"/><circle class="cls-1" cx="465.07" cy="104.37" r="11.33"/><path class="cls-1" d="M453.13,94.43a2,2,0,0,1-1.41-.58l-5.52-5.52A2,2,0,0,1,449,85.5L454.55,91a2,2,0,0,1-1.42,3.41Z"/><path class="cls-1" d="M448.19,106.37H443a2,2,0,0,1,0-4h5.17a2,2,0,0,1,0,4Z"/><path class="cls-1" d="M465.07,128.41a2,2,0,0,1-2-2v-5.16a2,2,0,1,1,4,0v5.16A2,2,0,0,1,465.07,128.41Z"/><path class="cls-1" d="M487.11,106.37H482a2,2,0,1,1,0-4h5.16a2,2,0,0,1,0,4Z"/><path class="cls-1" d="M465.07,89.49a2,2,0,0,1-2-2V82.33a2,2,0,1,1,4,0v5.16A2,2,0,0,1,465.07,89.49Z"/><path class="cls-1" d="M447.61,123.83a2,2,0,0,1-1.41-3.42l5.52-5.52a2,2,0,0,1,2.83,2.83L449,123.24A2,2,0,0,1,447.61,123.83Z"/><path class="cls-1" d="M482.52,123.83a2,2,0,0,1-1.41-.59l-5.52-5.52a2,2,0,0,1,2.83-2.83l5.52,5.52a2,2,0,0,1-1.42,3.42Z"/><path class="cls-1" d="M477,94.43a2,2,0,0,1-1.41-.58,2,2,0,0,1,0-2.83l5.52-5.52a2,2,0,0,1,2.83,2.83l-5.52,5.52A2,2,0,0,1,477,94.43Z"/></g></g></svg>