<svg width="215" height="172" viewBox="0 0 215 172" fill="none" xmlns="http://www.w3.org/2000/svg">
<g clip-path="url(#clip0_454_42603)">
<g clip-path="url(#clip1_454_42603)">
<path d="M204.845 144.649C198.123 143.291 190.233 142.093 181.405 141.067V102.234H186.295C186.841 102.234 187.381 102.126 187.885 101.917C188.389 101.708 188.847 101.402 189.232 101.016C189.618 100.63 189.924 100.171 190.133 99.6665C190.342 99.1619 190.449 98.621 190.449 98.0748V88.4711C190.449 87.368 190.012 86.3102 189.232 85.5303C188.453 84.7503 187.397 84.3121 186.295 84.3121H167.384C168.283 81.9349 168.283 79.3109 167.385 76.9334C166.488 74.5558 164.753 72.5885 162.509 71.4012L154.762 67.2565L167.384 43.6157L175.75 43.8613C176.276 43.8816 176.797 43.7578 177.257 43.5032C177.717 43.2487 178.099 42.8731 178.361 42.4171L185.025 29.9251C185.375 29.2553 185.449 28.4747 185.23 27.7511C185.012 27.0275 184.519 26.4184 183.857 26.0547L167.701 17.3898C167.032 17.0395 166.253 16.9659 165.53 17.1846C164.807 17.4033 164.199 17.897 163.836 18.5596L157.157 31.0659C156.912 31.5368 156.8 32.0663 156.836 32.5963C156.872 33.1262 157.053 33.6362 157.359 34.0699L161.831 40.3374L149.065 64.2527L141.318 60.108C140.104 59.4612 138.775 59.0601 137.406 58.9278C136.037 58.7955 134.655 58.9344 133.34 59.3368C132.024 59.7391 130.801 60.3969 129.739 61.2726C128.678 62.1483 127.799 63.2248 127.153 64.4405L116.508 84.3842H99.1114V52.6128C99.1114 52.2298 98.9597 51.8625 98.6891 51.5917C98.4186 51.3209 98.0515 51.1686 97.6689 51.1686H93.962C93.5794 51.1686 93.2123 51.3209 92.9418 51.5917C92.6712 51.8625 92.5195 52.2298 92.5195 52.6128V53.7537C92.5195 53.7997 92.5013 53.8437 92.4688 53.8762C92.4363 53.9087 92.3922 53.927 92.3463 53.927H90.0818C90.0359 53.927 89.9917 53.9087 89.9593 53.8762C89.9268 53.8437 89.9085 53.7997 89.9085 53.7537V52.6128C89.9085 52.2298 89.7565 51.8625 89.4859 51.5917C89.2154 51.3209 88.8486 51.1686 88.4661 51.1686H88.0477L89.9519 43.7167L104.809 41.695C105.059 41.6564 105.291 41.545 105.478 41.3749C105.664 41.2048 105.797 40.9833 105.858 40.7383C105.92 40.4933 105.908 40.2356 105.824 39.9974C105.74 39.7591 105.588 39.5509 105.386 39.3987L93.3559 30.4739V30.3295C93.3798 30.2376 93.3853 30.1418 93.3721 30.0477C93.3589 29.9535 93.3274 29.8629 93.2791 29.7811C93.2309 29.6993 93.167 29.6277 93.0911 29.5706C93.0152 29.5136 92.9288 29.472 92.8368 29.4484C92.7459 29.4247 92.6509 29.4195 92.5579 29.4329C92.4649 29.4463 92.3754 29.4781 92.2948 29.5265C92.2142 29.575 92.1444 29.6389 92.0888 29.7148C92.0332 29.7907 91.9931 29.877 91.9712 29.9685L86.533 51.1686H84.7299C84.3474 51.1686 83.9806 51.3209 83.71 51.5917C83.4395 51.8625 83.2874 52.2298 83.2874 52.6128V53.7537C83.2874 53.7997 83.2692 53.8437 83.2367 53.8762C83.2043 53.9087 83.1604 53.927 83.1145 53.927H80.8642C80.8403 53.929 80.8161 53.926 80.7934 53.9182C80.7707 53.9104 80.7501 53.898 80.7325 53.8817C80.7148 53.8654 80.7009 53.8455 80.6913 53.8235C80.6817 53.8015 80.6767 53.7777 80.6768 53.7537V52.6128C80.6768 52.2298 80.5247 51.8625 80.2542 51.5917C79.9837 51.3209 79.6169 51.1686 79.2343 51.1686H75.5271C75.1445 51.1686 74.7777 51.3209 74.5072 51.5917C74.2367 51.8625 74.0846 52.2298 74.0846 52.6128V68.4985C74.0846 68.8815 73.9325 69.2489 73.662 69.5197C73.3915 69.7906 73.0247 69.9426 72.6421 69.9426H68.8053C68.4227 69.9426 68.0555 69.7906 67.785 69.5197C67.5145 69.2489 67.3628 68.8815 67.3628 68.4985V61.2777C67.3628 60.8947 67.2107 60.5275 66.9402 60.2566C66.6697 59.9858 66.3029 59.8335 65.9203 59.8335H62.0109C61.6283 59.8335 61.2615 59.9858 60.991 60.2566C60.7205 60.5275 60.5684 60.8947 60.5684 61.2777V62.4186C60.5685 62.4427 60.5636 62.4664 60.554 62.4885C60.5444 62.5105 60.5304 62.5303 60.5128 62.5466C60.4951 62.5629 60.4745 62.5753 60.4518 62.5831C60.4291 62.5909 60.405 62.5939 60.3811 62.5919H58.0441C57.9982 62.5919 57.9543 62.5737 57.9219 62.5412C57.8894 62.5087 57.8712 62.4646 57.8712 62.4186V61.2777C57.8712 60.8947 57.7191 60.5275 57.4486 60.2566C57.178 59.9858 56.8112 59.8335 56.4287 59.8335H52.5196C52.137 59.8335 51.7699 59.9858 51.4994 60.2566C51.2289 60.5275 51.0771 60.8947 51.0771 61.2777V62.4186C51.0771 62.4646 51.0589 62.5087 51.0264 62.5412C50.994 62.5737 50.9498 62.5919 50.9039 62.5919H48.5672C48.5433 62.5939 48.5191 62.5909 48.4965 62.5831C48.4738 62.5753 48.4528 62.5629 48.4352 62.5466C48.4175 62.5303 48.4036 62.5105 48.394 62.4885C48.3844 62.4664 48.3794 62.4427 48.3795 62.4186V61.2777C48.3795 60.8947 48.2274 60.5275 47.9569 60.2566C47.6864 59.9858 47.3196 59.8335 46.9371 59.8335H43.028C42.6454 59.8335 42.2786 59.9858 42.0081 60.2566C41.7376 60.5275 41.5855 60.8947 41.5855 61.2777V84.3842H28.2426C27.6965 84.3823 27.1553 84.4886 26.6504 84.6969C26.1455 84.9053 25.6871 85.2115 25.3009 85.5981C24.9148 85.9847 24.6085 86.4441 24.4004 86.9495C24.1923 87.455 24.0865 87.9966 24.0884 88.5434V98.147C24.0865 98.6938 24.1923 99.2354 24.4004 99.7409C24.6085 100.246 24.9148 100.706 25.3009 101.092C25.6871 101.479 26.1455 101.785 26.6504 101.993C27.1553 102.202 27.6965 102.308 28.2426 102.306H33.1324V141.14C24.3045 142.165 16.3997 143.364 9.69216 144.721C3.63375 145.934 4.39839 156.072 10.5433 156.072H203.518C210.125 156.072 210.889 145.862 204.845 144.649ZM167.528 23.7296L178.635 29.6796L174.149 38.0846L167.124 37.8824L163.042 32.1058L167.528 23.7296ZM130.961 66.419C131.342 65.7054 131.859 65.0738 132.483 64.5605C133.107 64.0472 133.827 63.6623 134.6 63.4275C135.373 63.1928 136.185 63.1129 136.988 63.1926C137.792 63.2722 138.572 63.5098 139.285 63.8917L146.915 67.9641C144.29 73.0187 143.453 77.7266 145.054 78.5931C146.656 79.4596 150.103 76.1236 152.844 71.1412L160.474 75.2283C161.882 75.9761 162.942 77.2442 163.43 78.7627C163.917 80.2812 163.794 81.9302 163.085 83.3589L162.609 84.3121H121.412L130.961 66.419ZM81.9172 77.2501C81.8858 76.1044 82.2572 74.9839 82.9663 74.084C83.6753 73.1841 84.6771 72.5618 85.7973 72.3255C86.478 72.2005 87.1777 72.2269 87.847 72.4029C88.5162 72.5789 89.1388 72.9004 89.6701 73.3441C90.2015 73.7879 90.6287 74.3433 90.9217 74.9709C91.2147 75.5985 91.3662 76.2829 91.3655 76.9757V84.1964C91.3655 84.2205 91.3606 84.2442 91.351 84.2663C91.3414 84.2883 91.3275 84.3081 91.3098 84.3244C91.2922 84.3407 91.2712 84.3531 91.2485 84.3609C91.2259 84.3687 91.2017 84.3717 91.1778 84.3697H82.1049C82.0809 84.3717 82.0568 84.3687 82.0341 84.3609C82.0114 84.3531 81.9904 84.3407 81.9728 84.3244C81.9552 84.3081 81.9412 84.2883 81.9316 84.2663C81.922 84.2442 81.9171 84.2205 81.9172 84.1964V77.2501ZM28.661 99.3456C28.4937 99.3476 28.3277 99.3161 28.1729 99.2529C28.018 99.1897 27.8773 99.0961 27.7591 98.9777C27.6408 98.8593 27.5475 98.7185 27.4844 98.5634C27.4213 98.4084 27.3895 98.2422 27.3914 98.0748V88.4711C27.3914 88.3042 27.4245 88.1391 27.4882 87.9849C27.552 87.8307 27.6454 87.6906 27.7633 87.5725C27.8812 87.4545 28.021 87.3609 28.175 87.297C28.329 87.2331 28.4943 87.2004 28.661 87.2004H119.71H119.797H186.223C186.39 87.2004 186.555 87.2331 186.709 87.297C186.863 87.3609 187.003 87.4545 187.121 87.5725C187.238 87.6906 187.332 87.8307 187.396 87.9849C187.459 88.1391 187.492 88.3042 187.492 88.4711V98.0748C187.494 98.2422 187.463 98.4084 187.399 98.5634C187.336 98.7185 187.243 98.8593 187.125 98.9777C187.007 99.0961 186.866 99.1897 186.711 99.2529C186.556 99.3161 186.39 99.3476 186.223 99.3456H28.7187H28.661ZM36.4358 102.234H178.462V140.692C131.234 136.032 83.6635 136.032 36.4358 140.692V102.234Z" fill="#DDAA90"/>
</g>
</g>
<defs>
<clipPath id="clip0_454_42603">
<rect width="214.667" height="171.734" fill="white" transform="translate(0.333008)"/>
</clipPath>
<clipPath id="clip1_454_42603">
<rect width="203" height="139" fill="white" transform="translate(6 17)"/>
</clipPath>
</defs>
</svg>
