<svg width="216" height="172" viewBox="0 0 216 172" fill="none" xmlns="http://www.w3.org/2000/svg">
<g clip-path="url(#clip0_454_42571)">
<g clip-path="url(#clip1_454_42571)">
<path d="M121.06 132.638H68.1731C67.7058 132.638 67.2576 132.452 66.9272 132.121C66.5967 131.79 66.4111 131.342 66.4111 130.874C66.4111 130.406 66.5967 129.958 66.9272 129.627C67.2576 129.296 67.7058 129.11 68.1731 129.11H121.06C122.993 129.11 127.635 126.478 127.635 119.897C127.635 113.317 123.019 110.684 121.06 110.684H68.1731C67.7058 110.684 67.2576 110.499 66.9272 110.168C66.5967 109.837 66.4111 109.389 66.4111 108.921C66.4111 108.453 66.5967 108.004 66.9272 107.674C67.2576 107.343 67.7058 107.157 68.1731 107.157H121.06C125.176 107.157 131.133 111.711 131.133 119.924C131.133 128.136 125.242 132.638 121.06 132.638Z" fill="#DDAA90"/>
<path d="M121.954 121.187H69.5405C69.1918 121.187 68.8573 121.049 68.6107 120.802C68.3641 120.555 68.2256 120.22 68.2256 119.871C68.2256 119.522 68.3641 119.187 68.6107 118.941C68.8573 118.694 69.1918 118.555 69.5405 118.555H121.954C122.303 118.555 122.637 118.694 122.884 118.941C123.131 119.187 123.269 119.522 123.269 119.871C123.269 120.22 123.131 120.555 122.884 120.802C122.637 121.049 122.303 121.187 121.954 121.187Z" fill="#DDAA90"/>
<path d="M121.954 116.002H69.5405C69.1918 116.002 68.8573 115.863 68.6107 115.616C68.3641 115.369 68.2256 115.035 68.2256 114.686C68.2256 114.336 68.3641 114.002 68.6107 113.755C68.8573 113.508 69.1918 113.369 69.5405 113.369H121.954C122.303 113.369 122.637 113.508 122.884 113.755C123.131 114.002 123.269 114.336 123.269 114.686C123.269 115.035 123.131 115.369 122.884 115.616C122.637 115.863 122.303 116.002 121.954 116.002Z" fill="#DDAA90"/>
<path d="M121.954 126.386H69.5405C69.1918 126.386 68.8573 126.247 68.6107 126C68.3641 125.754 68.2256 125.419 68.2256 125.07C68.2256 124.721 68.3641 124.386 68.6107 124.139C68.8573 123.892 69.1918 123.754 69.5405 123.754H121.954C122.303 123.754 122.637 123.892 122.884 124.139C123.131 124.386 123.269 124.721 123.269 125.07C123.269 125.419 123.131 125.754 122.884 126C122.637 126.247 122.303 126.386 121.954 126.386Z" fill="#DDAA90"/>
<path d="M197.905 80.3474H152.579C149.082 80.3474 145.308 77.2939 145.308 70.5684C145.308 63.8429 149.082 60.7896 152.579 60.7896H197.905C198.373 60.7896 198.821 60.9753 199.151 61.3061C199.482 61.6368 199.667 62.0854 199.667 62.5531C199.667 63.0209 199.482 63.4695 199.151 63.8002C198.821 64.1309 198.373 64.3167 197.905 64.3167H152.579C150.712 64.3167 148.832 66.2515 148.832 70.5684C148.832 74.8854 150.712 76.8333 152.579 76.8333H197.905C198.149 76.8122 198.394 76.8419 198.625 76.9207C198.856 76.9994 199.068 77.1253 199.248 77.2905C199.428 77.4557 199.572 77.6565 199.67 77.8803C199.769 78.104 199.819 78.3458 199.819 78.5903C199.819 78.8347 199.769 79.0765 199.67 79.3002C199.572 79.524 199.428 79.725 199.248 79.8902C199.068 80.0554 198.856 80.1813 198.625 80.26C198.394 80.3387 198.149 80.3685 197.905 80.3474Z" fill="#DDAA90"/>
<path d="M195.564 69.2917H153.052C152.704 69.2917 152.369 69.1531 152.122 68.9063C151.876 68.6595 151.737 68.3246 151.737 67.9756C151.737 67.6265 151.876 67.2917 152.122 67.0449C152.369 66.798 152.704 66.6594 153.052 66.6594H195.564C195.913 66.6594 196.248 66.798 196.494 67.0449C196.741 67.2917 196.879 67.6265 196.879 67.9756C196.879 68.3246 196.741 68.6595 196.494 68.9063C196.248 69.1531 195.913 69.2917 195.564 69.2917Z" fill="#DDAA90"/>
<path d="M195.564 74.4904H153.052C152.704 74.4904 152.369 74.3518 152.122 74.105C151.876 73.8582 151.737 73.5234 151.737 73.1743C151.737 72.8252 151.876 72.4906 152.122 72.2437C152.369 71.9969 152.704 71.8582 153.052 71.8582H195.564C195.913 71.8582 196.248 71.9969 196.494 72.2437C196.741 72.4906 196.879 72.8252 196.879 73.1743C196.879 73.5234 196.741 73.8582 196.494 74.105C196.248 74.3518 195.913 74.4904 195.564 74.4904Z" fill="#DDAA90"/>
<path d="M189.121 157.565H143.782C143.539 157.587 143.294 157.557 143.063 157.478C142.832 157.399 142.619 157.273 142.439 157.108C142.259 156.943 142.115 156.742 142.017 156.518C141.919 156.295 141.868 156.053 141.868 155.808C141.868 155.564 141.919 155.322 142.017 155.098C142.115 154.875 142.259 154.674 142.439 154.509C142.619 154.343 142.832 154.218 143.063 154.139C143.294 154.06 143.539 154.03 143.782 154.051H189.121C190.989 154.051 192.869 152.117 192.869 147.787C192.869 143.456 190.989 141.522 189.121 141.522H143.782C143.539 141.543 143.294 141.513 143.063 141.434C142.832 141.356 142.619 141.23 142.439 141.064C142.259 140.899 142.115 140.698 142.017 140.475C141.919 140.251 141.868 140.009 141.868 139.765C141.868 139.52 141.919 139.279 142.017 139.055C142.115 138.831 142.259 138.63 142.439 138.465C142.619 138.3 142.832 138.174 143.063 138.095C143.294 138.016 143.539 137.986 143.782 138.008H189.121C192.619 138.008 196.38 141.061 196.38 147.787C196.38 154.512 192.619 157.565 189.121 157.565Z" fill="#DDAA90"/>
<path d="M188.647 146.51H146.135C145.787 146.51 145.452 146.371 145.205 146.124C144.959 145.878 144.82 145.543 144.82 145.194C144.82 144.845 144.959 144.51 145.205 144.263C145.452 144.016 145.787 143.878 146.135 143.878H188.647C188.996 143.878 189.331 144.016 189.577 144.263C189.824 144.51 189.962 144.845 189.962 145.194C189.962 145.543 189.824 145.878 189.577 146.124C189.331 146.371 188.996 146.51 188.647 146.51Z" fill="#DDAA90"/>
<path d="M188.647 151.708H146.135C145.787 151.708 145.452 151.57 145.205 151.323C144.959 151.076 144.82 150.741 144.82 150.392C144.82 150.043 144.959 149.708 145.205 149.462C145.452 149.215 145.787 149.076 146.135 149.076H188.647C188.996 149.076 189.331 149.215 189.577 149.462C189.824 149.708 189.962 150.043 189.962 150.392C189.962 150.741 189.824 151.076 189.577 151.323C189.331 151.57 188.996 151.708 188.647 151.708Z" fill="#DDAA90"/>
<path d="M133.591 151.814H82.519C82.1703 151.814 81.8358 151.675 81.5892 151.428C81.3426 151.182 81.2041 150.847 81.2041 150.498C81.2041 150.149 81.3426 149.814 81.5892 149.567C81.8358 149.32 82.1703 149.182 82.519 149.182H133.591C133.94 149.182 134.275 149.32 134.521 149.567C134.768 149.814 134.906 150.149 134.906 150.498C134.906 150.847 134.768 151.182 134.521 151.428C134.275 151.675 133.94 151.814 133.591 151.814Z" fill="#DDAA90"/>
<path d="M133.591 146.391H82.519C82.1703 146.391 81.8358 146.253 81.5892 146.006C81.3426 145.759 81.2041 145.424 81.2041 145.075C81.2041 144.726 81.3426 144.391 81.5892 144.145C81.8358 143.898 82.1703 143.759 82.519 143.759H133.591C133.94 143.759 134.275 143.898 134.521 144.145C134.768 144.391 134.906 144.726 134.906 145.075C134.906 145.424 134.768 145.759 134.521 146.006C134.275 146.253 133.94 146.391 133.591 146.391Z" fill="#DDAA90"/>
<path d="M135.576 158.855H86.6604C86.4022 158.856 86.1466 158.802 85.9108 158.697L85.043 158.289L84.1093 158.71C83.8795 158.804 83.6342 158.853 83.3862 158.855H78.1264C77.8956 158.857 77.6667 158.813 77.453 158.726C77.2393 158.639 77.0449 158.51 76.8811 158.347C76.7173 158.184 76.5873 157.991 76.4986 157.778C76.4099 157.565 76.3643 157.336 76.3643 157.105V138.468C76.3677 138.003 76.5549 137.558 76.885 137.23C77.215 136.902 77.6613 136.718 78.1264 136.718H83.3862C83.6342 136.72 83.8795 136.769 84.1093 136.863L85.043 137.284L85.9108 136.876C86.1466 136.771 86.4022 136.717 86.6604 136.718H135.576C135.819 136.697 136.065 136.726 136.296 136.805C136.527 136.884 136.739 137.01 136.919 137.175C137.099 137.34 137.243 137.541 137.341 137.765C137.44 137.989 137.49 138.23 137.49 138.475C137.49 138.719 137.44 138.961 137.341 139.185C137.243 139.408 137.099 139.609 136.919 139.775C136.739 139.94 136.527 140.066 136.296 140.145C136.065 140.223 135.819 140.253 135.576 140.232H87.1074L85.8714 140.824C85.6398 140.928 85.3888 140.982 85.135 140.982C84.8812 140.982 84.6302 140.928 84.3985 140.824L83.0836 140.219H80.0067V155.328H83.0836L84.3985 154.736C84.6293 154.629 84.8806 154.573 85.135 154.573C85.3893 154.573 85.6407 154.629 85.8714 154.736L87.1074 155.315H135.629C135.872 155.294 136.117 155.324 136.348 155.402C136.579 155.481 136.792 155.607 136.972 155.772C137.152 155.937 137.296 156.138 137.394 156.362C137.492 156.586 137.543 156.827 137.543 157.072C137.543 157.316 137.492 157.558 137.394 157.782C137.296 158.006 137.152 158.206 136.972 158.372C136.792 158.537 136.579 158.663 136.348 158.742C136.117 158.82 135.872 158.85 135.629 158.829L135.576 158.855Z" fill="#DDAA90"/>
<path d="M192.632 126.083H141.573C141.224 126.083 140.889 125.944 140.643 125.698C140.396 125.451 140.258 125.116 140.258 124.767C140.258 124.418 140.396 124.083 140.643 123.836C140.889 123.59 141.224 123.451 141.573 123.451H192.632C192.981 123.451 193.315 123.59 193.562 123.836C193.808 124.083 193.947 124.418 193.947 124.767C193.947 125.116 193.808 125.451 193.562 125.698C193.315 125.944 192.981 126.083 192.632 126.083Z" fill="#DDAA90"/>
<path d="M192.632 120.661H141.573C141.224 120.661 140.889 120.522 140.643 120.275C140.396 120.028 140.258 119.694 140.258 119.345C140.258 118.996 140.396 118.661 140.643 118.414C140.889 118.167 141.224 118.029 141.573 118.029H192.632C192.981 118.029 193.315 118.167 193.562 118.414C193.808 118.661 193.947 118.996 193.947 119.345C193.947 119.694 193.808 120.028 193.562 120.275C193.315 120.522 192.981 120.661 192.632 120.661Z" fill="#DDAA90"/>
<path d="M194.618 133.111H145.702C145.443 133.108 145.187 133.05 144.952 132.94L144.098 132.532L143.151 132.954C142.924 133.058 142.677 133.112 142.428 133.111H137.168C136.937 133.111 136.709 133.066 136.496 132.977C136.283 132.888 136.089 132.758 135.927 132.594C135.764 132.43 135.635 132.236 135.548 132.022C135.461 131.808 135.417 131.579 135.419 131.348V112.724C135.417 112.493 135.461 112.264 135.548 112.05C135.635 111.837 135.764 111.642 135.927 111.478C136.089 111.314 136.283 111.184 136.496 111.095C136.709 111.006 136.937 110.961 137.168 110.961H142.428C142.677 110.96 142.924 111.014 143.151 111.119L144.098 111.54L144.952 111.132C145.185 111.016 145.442 110.958 145.702 110.961H194.618C195.085 110.961 195.533 111.147 195.864 111.477C196.194 111.808 196.38 112.257 196.38 112.724C196.38 113.192 196.194 113.641 195.864 113.971C195.533 114.302 195.085 114.488 194.618 114.488H146.096L144.86 115.067C144.631 115.172 144.382 115.225 144.13 115.225C143.879 115.225 143.63 115.172 143.401 115.067L142.086 114.475H139.009V129.571H142.086L143.401 128.979C143.629 128.872 143.878 128.816 144.13 128.816C144.383 128.816 144.632 128.872 144.86 128.979L146.096 129.558H194.618C195.085 129.558 195.533 129.744 195.864 130.074C196.194 130.405 196.38 130.854 196.38 131.322C196.38 131.789 196.194 132.238 195.864 132.569C195.533 132.899 195.085 133.085 194.618 133.085V133.111Z" fill="#DDAA90"/>
<path d="M184.322 107.513H137.325C135.511 107.513 133.77 106.792 132.486 105.509C131.201 104.226 130.478 102.485 130.475 100.669V91.9557C130.478 90.1381 131.201 88.3961 132.485 87.1109C133.769 85.8257 135.51 85.1021 137.325 85.0986H184.322C186.136 85.1021 187.875 85.8261 189.157 87.1117C190.439 88.3973 191.159 90.1393 191.159 91.9557V100.669C191.159 102.484 190.439 104.225 189.157 105.508C187.874 106.791 186.135 107.513 184.322 107.513ZM137.325 88.6258C136.443 88.6258 135.597 88.9767 134.973 89.6012C134.349 90.2257 133.999 91.0726 133.999 91.9557V100.669C133.999 101.552 134.349 102.399 134.973 103.023C135.597 103.648 136.443 103.998 137.325 103.998H184.322C185.203 103.995 186.047 103.643 186.67 103.019C187.293 102.396 187.645 101.551 187.648 100.669V91.9557C187.648 91.0726 187.298 90.2257 186.674 89.6012C186.05 88.9767 185.204 88.6258 184.322 88.6258H137.325Z" fill="#DDAA90"/>
<path d="M151.567 86.8755H143.782V105.762H151.567V86.8755Z" fill="#DDAA90"/>
<path d="M61.1903 158.987H22.5046C20.6912 158.987 18.9519 158.266 17.6696 156.982C16.3873 155.699 15.667 153.958 15.667 152.143V143.43C15.667 142.531 15.8438 141.641 16.1874 140.811C16.531 139.981 17.0346 139.226 17.6696 138.591C18.3045 137.955 19.0583 137.451 19.8879 137.107C20.7175 136.763 21.6067 136.586 22.5046 136.586H61.1903C63.005 136.586 64.7455 137.307 66.0299 138.59C67.3143 139.873 68.0376 141.614 68.0411 143.43V152.143C68.0376 153.959 67.3143 155.7 66.0299 156.983C64.7455 158.266 63.005 158.987 61.1903 158.987ZM22.5046 140.1C21.6234 140.104 20.7793 140.456 20.1561 141.079C19.533 141.703 19.1813 142.548 19.1778 143.43V152.143C19.1813 153.025 19.533 153.87 20.1561 154.494C20.7793 155.117 21.6234 155.469 22.5046 155.473H61.1903C62.0726 155.473 62.9188 155.122 63.5427 154.498C64.1666 153.873 64.517 153.026 64.517 152.143V143.43C64.517 142.547 64.1666 141.7 63.5427 141.076C62.9188 140.451 62.0726 140.1 61.1903 140.1H22.5046Z" fill="#DDAA90"/>
<path d="M52.236 157.223H60.0205V138.337H52.236V157.223Z" fill="#DDAA90"/>
<path d="M49.3821 138.416H45.3584V157.171H49.3821V138.416Z" fill="#DDAA90"/>
<path d="M185.452 26.5959L193.605 15.8168C193.753 15.6311 193.848 15.4088 193.88 15.1733C193.912 14.9379 193.88 14.6982 193.787 14.4796C193.694 14.261 193.544 14.0715 193.352 13.9316C193.16 13.7916 192.934 13.7063 192.697 13.6846L179.298 12.0131C179.064 11.978 178.826 12.0066 178.607 12.0958C178.388 12.1851 178.197 12.3316 178.055 12.5202C177.912 12.7087 177.823 12.9323 177.796 13.1673C177.77 13.4023 177.807 13.6401 177.904 13.8557L183.164 26.3064C183.251 26.5259 183.394 26.7181 183.581 26.8629C183.767 27.0077 183.989 27.0997 184.222 27.1293C184.456 27.1589 184.694 27.1251 184.91 27.0313C185.127 26.9375 185.314 26.787 185.452 26.5959Z" fill="#DDAA90"/>
<path d="M41.3346 129.979C40.9859 129.979 40.6515 129.84 40.4049 129.594C40.1583 129.347 40.0197 129.012 40.0197 128.663C40.0197 127.241 40.0198 125.807 39.8489 124.399C39.8192 124.05 39.9293 123.703 40.155 123.435C40.3806 123.167 40.7032 123 41.0519 122.971C41.4007 122.941 41.747 123.051 42.0145 123.277C42.2821 123.503 42.4491 123.826 42.4788 124.175C42.5576 125.201 42.6234 126.241 42.6365 127.294C42.7203 127.484 42.752 127.693 42.7285 127.9C42.7285 128.452 42.7284 128.755 42.6495 128.768C42.623 129.099 42.4729 129.407 42.2291 129.632C41.9854 129.856 41.6659 129.98 41.3346 129.979ZM42.3735 121.213H42.1893C41.8441 121.165 41.5325 120.981 41.3229 120.702C41.1133 120.423 41.0229 120.072 41.0717 119.726C41.3347 117.963 41.6372 116.199 41.9527 114.462C42.0155 114.113 42.2142 113.803 42.5052 113.601C42.7962 113.398 43.1555 113.32 43.5043 113.382C43.853 113.445 44.1626 113.644 44.3648 113.935C44.567 114.227 44.6454 114.586 44.5826 114.935C44.267 116.633 43.9777 118.371 43.7147 120.095C43.679 120.418 43.5248 120.717 43.282 120.933C43.0391 121.15 42.7248 121.268 42.3998 121.266L42.3735 121.213ZM39.8882 117.818C39.5878 117.827 39.2936 117.732 39.0543 117.55C38.8151 117.368 38.6452 117.11 38.5732 116.818C38.1654 115.167 37.6516 113.545 37.0349 111.961C36.9727 111.8 36.9429 111.627 36.9472 111.454C36.9516 111.281 36.99 111.11 37.0602 110.952C37.202 110.633 37.4648 110.382 37.7909 110.257C38.117 110.131 38.4796 110.14 38.7989 110.282C39.1183 110.424 39.3683 110.687 39.4938 111.013C40.1432 112.702 40.6877 114.43 41.1243 116.186C41.2077 116.524 41.1534 116.882 40.9734 117.181C40.7935 117.479 40.5026 117.694 40.1644 117.778L39.8882 117.818ZM44.8719 108.263H44.5695C44.4008 108.223 44.2418 108.149 44.1016 108.048C43.9613 107.946 43.8424 107.817 43.752 107.669C43.6615 107.521 43.6013 107.357 43.5746 107.185C43.5479 107.014 43.5553 106.839 43.5964 106.67C44.0172 104.907 44.4643 103.169 44.9114 101.511C44.9589 101.344 45.0387 101.188 45.1464 101.052C45.254 100.916 45.3872 100.803 45.5387 100.719C45.6901 100.634 45.8566 100.581 46.0287 100.561C46.2008 100.541 46.3752 100.555 46.5419 100.603C46.7085 100.65 46.8642 100.73 47 100.838C47.1358 100.946 47.249 101.079 47.3332 101.231C47.4175 101.382 47.4711 101.549 47.491 101.721C47.5109 101.893 47.4966 102.068 47.4491 102.235C46.9757 103.854 46.5418 105.551 46.1342 107.289C46.0593 107.567 45.8953 107.813 45.6672 107.989C45.4392 108.165 45.1598 108.261 44.8719 108.263ZM34.6416 105.828C34.4296 105.827 34.2208 105.776 34.0331 105.677C33.8453 105.579 33.6842 105.436 33.5634 105.262C32.6187 103.89 31.5345 102.62 30.3285 101.471C30.1887 101.357 30.0739 101.215 29.9913 101.054C29.9087 100.893 29.8602 100.717 29.8486 100.537C29.837 100.357 29.8625 100.176 29.9239 100.005C29.9852 99.8354 30.0809 99.6798 30.2049 99.5484C30.329 99.417 30.4788 99.3126 30.6449 99.2417C30.8111 99.1708 30.9901 99.1349 31.1708 99.1363C31.3514 99.1376 31.5298 99.1761 31.6948 99.2495C31.8599 99.323 32.0079 99.4297 32.13 99.563C33.4681 100.835 34.6712 102.242 35.7199 103.761C35.8567 103.959 35.9369 104.19 35.9519 104.429C35.9669 104.669 35.9161 104.908 35.805 105.121C35.6939 105.334 35.5269 105.512 35.3218 105.637C35.1168 105.761 34.8815 105.827 34.6416 105.828ZM24.5954 97.6808C24.4473 97.6792 24.3007 97.6525 24.1615 97.602C22.6448 97.0686 21.0485 96.7971 19.4409 96.7991C19.0922 96.7991 18.7577 96.6604 18.5111 96.4135C18.2645 96.1667 18.126 95.832 18.126 95.483C18.126 95.1339 18.2645 94.7991 18.5111 94.5523C18.7577 94.3054 19.0922 94.1668 19.4409 94.1668C21.3437 94.167 23.2328 94.4873 25.0294 95.1144C25.3286 95.2127 25.5825 95.415 25.7452 95.6848C25.9079 95.9546 25.9685 96.2739 25.916 96.5846C25.8634 96.8953 25.7013 97.1768 25.459 97.378C25.2166 97.5792 24.9102 97.6866 24.5954 97.6808ZM94.7871 96.0752C94.4902 96.0854 94.1987 95.9947 93.9599 95.8178C93.7212 95.641 93.5492 95.3884 93.4721 95.1012C92.9987 93.4034 92.4728 91.7583 91.9074 90.2052C91.8352 90.0413 91.7971 89.8643 91.7955 89.6852C91.794 89.506 91.8291 89.3283 91.8986 89.1632C91.9681 88.998 92.0706 88.8489 92.1997 88.7247C92.3288 88.6006 92.4818 88.5042 92.6495 88.4413C92.8171 88.3785 92.9959 88.3506 93.1747 88.3594C93.3535 88.3681 93.5286 88.4134 93.6893 88.4923C93.85 88.5711 93.993 88.6821 94.1094 88.8182C94.2258 88.9544 94.3133 89.1127 94.3664 89.2838C94.7345 90.2973 95.0895 91.3502 95.4314 92.4163C95.6286 91.3897 95.8653 90.2579 96.1283 89.0207C96.2033 88.6716 96.4138 88.3666 96.7134 88.1729C97.013 87.9791 97.3772 87.9124 97.7259 87.9875C98.0747 88.0625 98.3794 88.2732 98.573 88.5731C98.7666 88.873 98.8332 89.2376 98.7582 89.5867C98.3243 91.5741 97.9825 93.3113 97.7064 94.7327C97.6394 95.0717 97.4418 95.3709 97.1564 95.5654C96.871 95.7599 96.5207 95.8344 96.181 95.7725C96.0367 95.7523 95.898 95.7031 95.7733 95.6277C95.6053 95.8175 95.3861 95.9545 95.1421 96.0225C95.026 96.0528 94.907 96.0706 94.7871 96.0752ZM48.6589 95.6409C48.502 95.6423 48.3462 95.6155 48.1987 95.5619C48.0361 95.5018 47.8868 95.4102 47.7597 95.2923C47.6326 95.1743 47.53 95.0323 47.4579 94.8746C47.3858 94.7168 47.3457 94.5462 47.3396 94.3728C47.3336 94.1994 47.3618 94.0266 47.4228 93.8642C48.0671 92.1268 48.7378 90.4553 49.461 88.9023C49.5327 88.745 49.6345 88.6034 49.7609 88.4855C49.8872 88.3677 50.0355 88.2758 50.1973 88.2153C50.3591 88.1548 50.5313 88.1268 50.7039 88.1329C50.8765 88.1389 51.0461 88.1791 51.2033 88.2508C51.3604 88.3225 51.5019 88.4244 51.6196 88.5509C51.7374 88.6774 51.8292 88.8258 51.8896 88.9877C51.9501 89.1497 51.978 89.3219 51.972 89.4946C51.9659 89.6674 51.9258 89.8373 51.8541 89.9946C51.1704 91.495 50.5392 93.1007 49.8817 94.7854C49.7885 95.0352 49.6218 95.2507 49.4034 95.4035C49.185 95.5562 48.9253 95.6391 48.6589 95.6409ZM89.8824 83.9009C89.6529 83.8995 89.4278 83.838 89.2294 83.7225C89.031 83.6071 88.8663 83.4417 88.7515 83.2428C87.9174 81.7796 86.9629 80.3884 85.898 79.0837C85.7888 78.9491 85.7073 78.7942 85.6581 78.6279C85.6088 78.4617 85.593 78.2874 85.6114 78.1149C85.6297 77.9425 85.6817 77.7754 85.7648 77.6232C85.8479 77.471 85.9602 77.3367 86.0953 77.2281C86.3645 77.0099 86.7089 76.9068 87.0536 76.9413C87.3983 76.9758 87.7155 77.1451 87.9363 77.4124C89.0888 78.8294 90.1223 80.3392 91.0264 81.9267C91.1133 82.0769 91.1697 82.2428 91.1923 82.4149C91.2149 82.587 91.2032 82.7619 91.158 82.9295C91.1127 83.0971 91.0349 83.2542 90.9288 83.3916C90.8227 83.5289 90.6905 83.6438 90.5398 83.7298C90.3394 83.8434 90.1127 83.9025 89.8824 83.9009ZM54.3789 83.8088C54.143 83.8084 53.9116 83.7446 53.7089 83.6239C53.5062 83.5032 53.3396 83.33 53.2267 83.1228C53.1138 82.9155 53.0586 82.6818 53.067 82.4459C53.0754 82.21 53.147 81.9806 53.2744 81.7819C54.2547 80.2486 55.3445 78.7883 56.5354 77.4124C56.6425 77.264 56.7793 77.1396 56.9372 77.0472C57.095 76.9547 57.2704 76.8962 57.4521 76.8754C57.6338 76.8547 57.818 76.8721 57.9926 76.9265C58.1672 76.981 58.3285 77.0714 58.4663 77.1918C58.604 77.3122 58.7152 77.4601 58.7926 77.6259C58.87 77.7917 58.9119 77.9719 58.9159 78.1549C58.9198 78.338 58.8855 78.5198 58.8152 78.6888C58.745 78.8578 58.6403 79.0102 58.5078 79.1364C57.4072 80.4207 56.3966 81.7795 55.4834 83.2033C55.3658 83.3868 55.2045 83.5381 55.014 83.6438C54.8236 83.7495 54.6098 83.8063 54.3921 83.8088H54.3789ZM99.3237 82.9269C99.2102 82.9406 99.0954 82.9406 98.9818 82.9269C98.8139 82.8827 98.6564 82.8056 98.5184 82.7001C98.3805 82.5946 98.2648 82.4627 98.178 82.3122C98.0912 82.1617 98.0351 81.9955 98.0128 81.8232C97.9905 81.6508 98.0024 81.4758 98.0481 81.3081C98.482 79.6629 98.9687 77.9519 99.4815 76.2015C99.5312 76.0353 99.6132 75.8805 99.7228 75.7461C99.8324 75.6118 99.9673 75.5003 100.12 75.4184C100.273 75.3364 100.44 75.2856 100.613 75.2687C100.785 75.2517 100.959 75.269 101.125 75.3196C101.458 75.4201 101.737 75.6481 101.902 75.9539C102.067 76.2596 102.104 76.6182 102.006 76.9516C101.493 78.6757 101.02 80.3737 100.586 81.9925C100.505 82.2613 100.34 82.4969 100.115 82.6651C99.89 82.8332 99.6175 82.925 99.3369 82.9269H99.3237ZM63.5047 74.5036C63.2743 74.5058 63.0472 74.4474 62.8464 74.3342C62.6456 74.2211 62.4782 74.0571 62.3607 73.8587C62.2732 73.7093 62.216 73.5441 62.1925 73.3725C62.1689 73.2009 62.1793 73.0262 62.2233 72.8587C62.2673 72.6912 62.3439 72.5342 62.4486 72.3963C62.5534 72.2585 62.6845 72.1427 62.834 72.0556C64.4761 71.1023 66.2479 70.393 68.0938 69.9498C68.4233 69.8913 68.7626 69.9608 69.0426 70.144C69.3227 70.3272 69.5224 70.6103 69.6012 70.9358C69.68 71.2612 69.6318 71.6045 69.4665 71.8957C69.3013 72.1869 69.0314 72.4041 68.7118 72.503C67.137 72.8937 65.6267 73.5099 64.2278 74.3325C64.012 74.4555 63.7659 74.5148 63.5178 74.5036H63.5047ZM81.0197 74.3852C80.7836 74.3851 80.552 74.3214 80.349 74.2009C78.9562 73.3751 77.4434 72.7713 75.865 72.411C75.5163 72.3342 75.2124 72.1218 75.0201 71.8207C74.8277 71.5196 74.7628 71.1544 74.8395 70.8053C74.9162 70.4562 75.1282 70.1519 75.4291 69.9594C75.7299 69.7669 76.0949 69.7019 76.4437 69.7787C78.295 70.1982 80.0696 70.9042 81.7034 71.8713C82.002 72.0471 82.2192 72.3338 82.3078 72.669C82.3964 73.0041 82.3493 73.3606 82.1768 73.6612C82.0696 73.8744 81.9066 74.0544 81.7051 74.1819C81.5035 74.3094 81.2711 74.3797 81.0328 74.3852H81.0197ZM103.229 70.3447C103.077 70.3445 102.925 70.3177 102.782 70.2656C102.454 70.1468 102.187 69.9027 102.039 69.5868C101.891 69.271 101.875 68.9091 101.993 68.5809C102.611 66.8568 103.308 65.1853 103.913 63.6059C104.047 63.283 104.304 63.0268 104.627 62.8935C104.95 62.7602 105.313 62.7609 105.635 62.8953C105.958 63.0297 106.214 63.2867 106.347 63.6101C106.48 63.9334 106.48 64.2965 106.345 64.6193C105.701 66.1592 105.03 67.7913 104.465 69.476C104.374 69.7283 104.208 69.9467 103.989 70.1019C103.771 70.2572 103.51 70.3419 103.242 70.3447H103.229ZM108.489 58.2624C108.277 58.2631 108.069 58.2087 107.884 58.1045C107.575 57.9421 107.344 57.6638 107.24 57.3306C107.137 56.9974 107.17 56.6367 107.332 56.3277C108.2 54.6826 109.107 53.1163 109.962 51.6817C110.05 51.5265 110.169 51.3909 110.312 51.2833C110.454 51.1756 110.617 51.0982 110.79 51.0556C110.964 51.013 111.144 51.0063 111.32 51.0357C111.496 51.0651 111.665 51.1301 111.815 51.2267C111.965 51.3234 112.094 51.4496 112.194 51.5977C112.294 51.7458 112.362 51.9128 112.396 52.0884C112.429 52.2639 112.426 52.4444 112.387 52.6189C112.349 52.7933 112.275 52.9581 112.171 53.1031C111.303 54.4192 110.422 55.9723 109.541 57.5648C109.438 57.7601 109.288 57.9264 109.104 58.0483C108.92 58.1702 108.709 58.2438 108.489 58.2624ZM159.022 54.4192C158.909 54.4392 158.793 54.4392 158.68 54.4192C158.344 54.3296 158.057 54.1105 157.882 53.8095C157.707 53.5086 157.658 53.1504 157.747 52.8136C158.049 51.6685 158.562 49.8522 159.298 47.6806C159.34 47.5029 159.419 47.3361 159.529 47.1906C159.64 47.045 159.779 46.924 159.938 46.8352C160.098 46.7464 160.274 46.6918 160.455 46.6748C160.637 46.6579 160.82 46.679 160.993 46.7367C161.166 46.7944 161.326 46.8877 161.461 47.0103C161.596 47.133 161.704 47.2823 161.778 47.4491C161.853 47.6158 161.891 47.7963 161.892 47.9789C161.893 48.1615 161.856 48.3423 161.784 48.5098C161.087 50.6288 160.587 52.4582 160.284 53.498C160.2 53.7665 160.032 54.0009 159.805 54.1667C159.578 54.3325 159.303 54.4209 159.022 54.4192ZM154.906 51.6554C154.72 51.6551 154.535 51.6151 154.365 51.5379C154.195 51.4608 154.043 51.3483 153.92 51.2079C152.796 49.9356 151.592 48.7355 150.317 47.6149C150.169 47.5077 150.045 47.3706 149.952 47.2126C149.86 47.0546 149.802 46.8791 149.781 46.6972C149.76 46.5153 149.777 46.3312 149.832 46.1564C149.886 45.9816 149.977 45.8202 150.097 45.6823C150.217 45.5444 150.365 45.4332 150.531 45.3557C150.696 45.2782 150.876 45.236 151.059 45.2321C151.242 45.2282 151.424 45.2625 151.592 45.3328C151.761 45.4032 151.914 45.5081 152.04 45.6407C153.407 46.8267 154.69 48.1064 155.879 49.4705C156.046 49.6597 156.154 49.8926 156.192 50.1416C156.229 50.3906 156.195 50.6452 156.093 50.8752C155.99 51.1052 155.824 51.301 155.614 51.4393C155.403 51.5776 155.158 51.6525 154.906 51.6554ZM115.931 47.4438C115.595 47.446 115.27 47.3188 115.024 47.0884C114.901 46.966 114.803 46.8204 114.736 46.6601C114.67 46.4997 114.635 46.3277 114.635 46.154C114.635 45.9802 114.67 45.8081 114.736 45.6477C114.803 45.4874 114.901 45.3418 115.024 45.2194C116.27 43.8696 117.644 42.6442 119.127 41.5605C119.41 41.373 119.754 41.3024 120.088 41.3634C120.422 41.4243 120.72 41.6122 120.918 41.8876C121.117 42.163 121.202 42.5047 121.154 42.8411C121.107 43.1776 120.932 43.4828 120.665 43.6928C119.324 44.6847 118.078 45.7994 116.944 47.0225C116.815 47.1615 116.658 47.2712 116.484 47.3438C116.309 47.4165 116.121 47.4506 115.931 47.4438ZM144.716 43.4953C144.5 43.4943 144.287 43.44 144.097 43.3374C142.617 42.5468 141.073 41.8819 139.482 41.35C139.163 41.2323 138.901 40.9954 138.753 40.6889C138.605 40.3825 138.581 40.0304 138.686 39.7066C138.792 39.3829 139.019 39.1127 139.319 38.9528C139.619 38.7929 139.97 38.7559 140.297 38.8493C142.037 39.4234 143.722 40.1502 145.334 41.021C145.591 41.1599 145.794 41.3804 145.912 41.6479C146.03 41.9154 146.055 42.2148 145.985 42.4984C145.914 42.7821 145.751 43.034 145.521 43.2145C145.291 43.395 145.008 43.4939 144.716 43.4953ZM163.388 42.0344C163.206 42.0346 163.026 41.994 162.862 41.9159C162.702 41.8472 162.558 41.7476 162.438 41.623C162.317 41.4984 162.222 41.3512 162.159 41.1897C162.095 41.0282 162.064 40.8557 162.067 40.6822C162.071 40.5086 162.108 40.3376 162.178 40.1786C162.927 38.494 163.716 36.8751 164.519 35.3483C164.682 35.0394 164.962 34.8083 165.296 34.7059C165.631 34.6034 165.992 34.6382 166.3 34.8022C166.609 34.9663 166.84 35.2464 166.942 35.5808C167.045 35.9153 167.01 36.2767 166.846 36.5856C166.057 38.0597 165.308 39.6126 164.584 41.2446C164.474 41.4702 164.301 41.6595 164.087 41.7901C163.873 41.9207 163.625 41.9872 163.375 41.9818L163.388 42.0344ZM126.924 40.7183C126.752 40.7373 126.577 40.7221 126.41 40.6735C126.243 40.6249 126.088 40.5438 125.952 40.4351C125.678 40.2154 125.503 39.896 125.465 39.5469C125.426 39.1979 125.528 38.8478 125.748 38.5738C125.967 38.2998 126.286 38.1244 126.635 38.086C128.391 37.6899 130.186 37.4912 131.987 37.4937H132.145C132.493 37.4937 132.828 37.6324 133.075 37.8792C133.321 38.1261 133.46 38.4607 133.46 38.8098C133.46 39.1589 133.321 39.4937 133.075 39.7405C132.828 39.9873 132.493 40.1259 132.145 40.1259H131.987C130.381 40.1217 128.78 40.2983 127.214 40.6524C127.117 40.6609 127.02 40.6565 126.924 40.6393V40.7183ZM169.87 30.6234C169.59 30.6206 169.319 30.5285 169.095 30.3603C168.955 30.2575 168.838 30.1282 168.749 29.98C168.659 29.8317 168.6 29.6674 168.575 29.4962C168.549 29.3251 168.557 29.1505 168.599 28.9826C168.641 28.8147 168.716 28.6567 168.818 28.5176C169.904 27.0549 171.095 25.6737 172.382 24.3849C172.633 24.1693 172.957 24.0566 173.288 24.0694C173.619 24.0822 173.933 24.2195 174.167 24.4539C174.401 24.6883 174.538 25.0026 174.551 25.3338C174.564 25.665 174.451 25.989 174.236 26.2407C173.039 27.4438 171.932 28.7325 170.922 30.0969C170.792 30.246 170.63 30.3636 170.448 30.4411C170.265 30.5186 170.068 30.5538 169.87 30.5444V30.6234ZM179.627 21.9895C179.329 21.9907 179.039 21.8906 178.806 21.7054C178.572 21.5202 178.408 21.2611 178.341 20.9704C178.274 20.6797 178.307 20.3747 178.436 20.1055C178.564 19.8364 178.78 19.619 179.049 19.4889C180.711 18.6605 182.482 18.0711 184.309 17.7383C184.481 17.709 184.658 17.714 184.829 17.753C185 17.792 185.161 17.8642 185.304 17.9657C185.447 18.0671 185.568 18.1958 185.661 18.3442C185.755 18.4926 185.818 18.658 185.847 18.8308C185.876 19.0037 185.871 19.1806 185.832 19.3515C185.793 19.5225 185.721 19.684 185.62 19.8269C185.519 19.9699 185.39 20.0916 185.242 20.1849C185.093 20.2782 184.928 20.3412 184.756 20.3706C183.157 20.6529 181.607 21.1626 180.153 21.8842C179.981 21.9264 179.803 21.9353 179.627 21.9106V21.9895Z" fill="#DDAA90"/>
</g>
</g>
<defs>
<clipPath id="clip0_454_42571">
<rect width="214.667" height="171.734" fill="white" transform="translate(0.666992)"/>
</clipPath>
<clipPath id="clip1_454_42571">
<rect width="184" height="147" fill="white" transform="translate(15.667 12)"/>
</clipPath>
</defs>
</svg>
